<?xml version="1.0" encoding="UTF-8"?>
<svg xmlns="http://www.w3.org/2000/svg"
     xmlns:xlink="http://www.w3.org/1999/xlink"
     xmlns:gadfly="http://www.gadflyjl.org/ns"
     version="1.2"
     width="152.4mm" height="101.6mm" viewBox="0 0 152.4 101.6"
     stroke="none"
     fill="#000000"
     stroke-width="0.3"
     font-size="3.88"
>
<g class="plotroot xscalable yscalable" id="img-06c293c1-1">
  <g font-size="3.88" font-family="'PT Sans','Helvetica Neue','Helvetica',sans-serif" fill="#564A55" stroke="#000000" stroke-opacity="0.000" id="img-06c293c1-2">
    <text x="80.05" y="89.99" text-anchor="middle" dy="0.6em">balance</text>
  </g>
  <g class="guide xlabels" font-size="2.82" font-family="'PT Sans Caption','Helvetica Neue','Helvetica',sans-serif" fill="#6C606B" id="img-06c293c1-3">
    <text x="14.69" y="83.32" text-anchor="middle" dy="0.6em">0</text>
    <text x="80.05" y="83.32" text-anchor="middle" dy="0.6em">50</text>
    <text x="145.4" y="83.32" text-anchor="middle" dy="0.6em">100</text>
  </g>
<g clip-path="url(#img-06c293c1-4)">
  <g id="img-06c293c1-5">
    <g pointer-events="visible" opacity="1" fill="#000000" fill-opacity="0.000" stroke="#000000" stroke-opacity="0.000" class="guide background" id="img-06c293c1-6">
      <rect x="12.69" y="12.61" width="134.71" height="69.7"/>
    </g>
    <g class="guide ygridlines xfixed" stroke-dasharray="0.5,0.5" stroke-width="0.2" stroke="#D0D0E0" id="img-06c293c1-7">
      <path fill="none" d="M12.69,80.32 L 147.4 80.32"/>
      <path fill="none" d="M12.69,58.41 L 147.4 58.41"/>
      <path fill="none" d="M12.69,36.51 L 147.4 36.51"/>
      <path fill="none" d="M12.69,14.61 L 147.4 14.61"/>
    </g>
    <g class="guide xgridlines yfixed" stroke-dasharray="0.5,0.5" stroke-width="0.2" stroke="#D0D0E0" id="img-06c293c1-8">
      <path fill="none" d="M14.69,12.61 L 14.69 82.32"/>
      <path fill="none" d="M80.05,12.61 L 80.05 82.32"/>
      <path fill="none" d="M145.4,12.61 L 145.4 82.32"/>
    </g>
    <g class="plotpanel" id="img-06c293c1-9">
      <g shape-rendering="crispEdges" stroke-width="0.3" id="img-06c293c1-10">
        <g stroke="#000000" stroke-opacity="0.000" fill="#00BFFF" class="geometry" id="img-06c293c1-11">
          <rect x="14.67" y="17.51" width="0.92" height="62.8"/>
          <rect x="15.54" y="31.68" width="0.92" height="48.63"/>
          <rect x="16.41" y="38.21" width="0.92" height="42.11"/>
          <rect x="17.28" y="44.88" width="0.92" height="35.44"/>
          <rect x="18.15" y="44.8" width="0.92" height="35.51"/>
          <rect x="19.03" y="51.94" width="0.92" height="28.37"/>
          <rect x="19.9" y="54.54" width="0.92" height="25.78"/>
          <rect x="20.77" y="56.41" width="0.92" height="23.9"/>
          <rect x="21.64" y="58.25" width="0.92" height="22.06"/>
          <rect x="22.51" y="60.31" width="0.92" height="20.01"/>
          <rect x="23.38" y="61.82" width="0.92" height="18.49"/>
          <rect x="24.25" y="63.7" width="0.92" height="16.62"/>
          <rect x="25.12" y="65.25" width="0.92" height="15.07"/>
          <rect x="26" y="66.36" width="0.92" height="13.95"/>
          <rect x="26.87" y="67.55" width="0.92" height="12.76"/>
          <rect x="27.74" y="68.67" width="0.92" height="11.64"/>
          <rect x="28.61" y="69.72" width="0.92" height="10.6"/>
          <rect x="29.48" y="70.69" width="0.92" height="9.63"/>
          <rect x="30.35" y="70.51" width="0.92" height="9.81"/>
          <rect x="31.22" y="72.38" width="0.92" height="7.93"/>
          <rect x="32.1" y="71.81" width="0.92" height="8.51"/>
          <rect x="32.97" y="72.13" width="0.92" height="8.18"/>
          <rect x="33.84" y="73.5" width="0.92" height="6.81"/>
          <rect x="34.71" y="72.78" width="0.92" height="7.53"/>
          <rect x="35.58" y="73.1" width="0.92" height="7.21"/>
          <rect x="36.45" y="73.29" width="0.92" height="7.03"/>
          <rect x="37.32" y="73.14" width="0.92" height="7.17"/>
          <rect x="38.2" y="73.83" width="0.92" height="6.49"/>
          <rect x="39.07" y="72.92" width="0.92" height="7.39"/>
          <rect x="39.94" y="74.4" width="0.92" height="5.91"/>
          <rect x="40.81" y="77.03" width="0.92" height="3.28"/>
          <rect x="41.68" y="76.42" width="0.92" height="3.89"/>
          <rect x="42.55" y="76.6" width="0.92" height="3.71"/>
          <rect x="43.42" y="76.57" width="0.92" height="3.75"/>
          <rect x="44.3" y="76.31" width="0.92" height="4"/>
          <rect x="45.17" y="77.68" width="0.92" height="2.63"/>
          <rect x="46.04" y="77.39" width="0.92" height="2.92"/>
          <rect x="46.91" y="77.5" width="0.92" height="2.81"/>
          <rect x="47.78" y="77.47" width="0.92" height="2.85"/>
          <rect x="48.65" y="77.39" width="0.92" height="2.92"/>
          <rect x="49.52" y="77.72" width="0.92" height="2.6"/>
          <rect x="50.39" y="77.43" width="0.92" height="2.88"/>
          <rect x="51.27" y="77.72" width="0.92" height="2.6"/>
          <rect x="52.14" y="77.5" width="0.92" height="2.81"/>
          <rect x="53.01" y="78.19" width="0.92" height="2.13"/>
          <rect x="53.88" y="77.83" width="0.92" height="2.49"/>
          <rect x="54.75" y="78.51" width="0.92" height="1.8"/>
          <rect x="55.62" y="78.8" width="0.92" height="1.51"/>
          <rect x="56.49" y="78.44" width="0.92" height="1.87"/>
          <rect x="57.37" y="78.37" width="0.92" height="1.95"/>
          <rect x="58.24" y="78.87" width="0.92" height="1.44"/>
          <rect x="59.11" y="78.26" width="0.92" height="2.05"/>
          <rect x="59.98" y="78.91" width="0.92" height="1.41"/>
          <rect x="60.85" y="78.98" width="0.92" height="1.33"/>
          <rect x="61.72" y="78.58" width="0.92" height="1.73"/>
          <rect x="62.59" y="78.33" width="0.92" height="1.98"/>
          <rect x="63.47" y="78.84" width="0.92" height="1.48"/>
          <rect x="64.34" y="78.98" width="0.92" height="1.33"/>
          <rect x="65.21" y="78.73" width="0.92" height="1.59"/>
          <rect x="66.08" y="79.02" width="0.92" height="1.3"/>
          <rect x="66.95" y="79.13" width="0.92" height="1.19"/>
          <rect x="67.82" y="79.05" width="0.92" height="1.26"/>
          <rect x="68.69" y="79.52" width="0.92" height="0.79"/>
          <rect x="69.57" y="79.2" width="0.92" height="1.12"/>
          <rect x="70.44" y="79.27" width="0.92" height="1.05"/>
          <rect x="71.31" y="79.31" width="0.92" height="1.01"/>
          <rect x="72.18" y="79.49" width="0.92" height="0.83"/>
          <rect x="73.05" y="79.09" width="0.92" height="1.23"/>
          <rect x="73.92" y="79.27" width="0.92" height="1.05"/>
          <rect x="74.79" y="79.13" width="0.92" height="1.19"/>
          <rect x="75.66" y="79.2" width="0.92" height="1.12"/>
          <rect x="76.54" y="79.59" width="0.92" height="0.72"/>
          <rect x="77.41" y="79.49" width="0.92" height="0.83"/>
          <rect x="78.28" y="79.27" width="0.92" height="1.05"/>
          <rect x="79.15" y="79.77" width="0.92" height="0.54"/>
          <rect x="80.02" y="79.49" width="0.92" height="0.83"/>
          <rect x="80.89" y="79.59" width="0.92" height="0.72"/>
          <rect x="81.76" y="79.74" width="0.92" height="0.58"/>
          <rect x="82.64" y="79.56" width="0.92" height="0.76"/>
          <rect x="83.51" y="79.92" width="0.92" height="0.4"/>
          <rect x="84.38" y="79.52" width="0.92" height="0.79"/>
          <rect x="85.25" y="79.23" width="0.92" height="1.08"/>
          <rect x="86.12" y="79.81" width="0.92" height="0.5"/>
          <rect x="86.99" y="79.7" width="0.92" height="0.61"/>
          <rect x="87.86" y="79.67" width="0.92" height="0.65"/>
          <rect x="88.74" y="79.88" width="0.92" height="0.43"/>
          <rect x="89.61" y="79.59" width="0.92" height="0.72"/>
          <rect x="90.48" y="79.45" width="0.92" height="0.87"/>
          <rect x="91.35" y="79.74" width="0.92" height="0.58"/>
          <rect x="92.22" y="79.67" width="0.92" height="0.65"/>
          <rect x="93.09" y="79.77" width="0.92" height="0.54"/>
          <rect x="93.96" y="79.85" width="0.92" height="0.47"/>
          <rect x="94.84" y="80.13" width="0.92" height="0.18"/>
          <rect x="95.71" y="79.59" width="0.92" height="0.72"/>
          <rect x="96.58" y="79.67" width="0.92" height="0.65"/>
          <rect x="97.45" y="79.81" width="0.92" height="0.5"/>
          <rect x="98.32" y="80.03" width="0.92" height="0.29"/>
          <rect x="99.19" y="79.99" width="0.92" height="0.32"/>
          <rect x="100.06" y="80.03" width="0.92" height="0.29"/>
          <rect x="100.93" y="79.88" width="0.92" height="0.43"/>
          <rect x="101.81" y="79.74" width="0.92" height="0.58"/>
          <rect x="102.68" y="79.74" width="0.92" height="0.58"/>
          <rect x="103.55" y="79.95" width="0.92" height="0.36"/>
          <rect x="104.42" y="79.92" width="0.92" height="0.4"/>
          <rect x="105.29" y="79.77" width="0.92" height="0.54"/>
          <rect x="106.16" y="79.88" width="0.92" height="0.43"/>
          <rect x="107.03" y="79.95" width="0.92" height="0.36"/>
          <rect x="107.91" y="79.92" width="0.92" height="0.4"/>
          <rect x="108.78" y="79.77" width="0.92" height="0.54"/>
          <rect x="109.65" y="79.92" width="0.92" height="0.4"/>
          <rect x="110.52" y="80.13" width="0.92" height="0.18"/>
          <rect x="111.39" y="80.03" width="0.92" height="0.29"/>
          <rect x="112.26" y="80.1" width="0.92" height="0.22"/>
          <rect x="113.13" y="79.99" width="0.92" height="0.32"/>
          <rect x="114.01" y="80.1" width="0.92" height="0.22"/>
          <rect x="114.88" y="80.06" width="0.92" height="0.25"/>
          <rect x="115.75" y="80.06" width="0.92" height="0.25"/>
          <rect x="116.62" y="79.95" width="0.92" height="0.36"/>
          <rect x="117.49" y="80.13" width="0.92" height="0.18"/>
          <rect x="118.36" y="80.13" width="0.92" height="0.18"/>
          <rect x="119.23" y="80.06" width="0.92" height="0.25"/>
          <rect x="120.11" y="80.1" width="0.92" height="0.22"/>
          <rect x="120.98" y="80.13" width="0.92" height="0.18"/>
          <rect x="121.85" y="80.06" width="0.92" height="0.25"/>
          <rect x="122.72" y="80.03" width="0.92" height="0.29"/>
          <rect x="123.59" y="80.21" width="0.92" height="0.11"/>
          <rect x="124.46" y="80.21" width="0.92" height="0.11"/>
          <rect x="125.33" y="80.13" width="0.92" height="0.18"/>
          <rect x="126.2" y="80.1" width="0.92" height="0.22"/>
          <rect x="127.08" y="80.17" width="0.92" height="0.14"/>
          <rect x="127.95" y="80.13" width="0.92" height="0.18"/>
          <rect x="128.82" y="79.99" width="0.92" height="0.32"/>
          <rect x="129.69" y="80.1" width="0.92" height="0.22"/>
          <rect x="130.56" y="79.99" width="0.92" height="0.32"/>
          <rect x="131.43" y="80.06" width="0.92" height="0.25"/>
          <rect x="132.3" y="80.1" width="0.92" height="0.22"/>
          <rect x="133.18" y="80.1" width="0.92" height="0.22"/>
          <rect x="134.05" y="80.28" width="0.92" height="0.04"/>
          <rect x="134.92" y="80.1" width="0.92" height="0.22"/>
          <rect x="135.79" y="80.1" width="0.92" height="0.22"/>
          <rect x="136.66" y="80.21" width="0.92" height="0.11"/>
          <rect x="137.53" y="80.21" width="0.92" height="0.11"/>
          <rect x="138.4" y="80.24" width="0.92" height="0.07"/>
          <rect x="139.28" y="79.99" width="0.92" height="0.32"/>
          <rect x="140.15" y="80.17" width="0.92" height="0.14"/>
          <rect x="141.02" y="79.99" width="0.92" height="0.32"/>
          <rect x="141.89" y="80.06" width="0.92" height="0.25"/>
          <rect x="142.76" y="80.1" width="0.92" height="0.22"/>
          <rect x="143.63" y="80.17" width="0.92" height="0.14"/>
          <rect x="144.5" y="80.1" width="0.92" height="0.22"/>
        </g>
      </g>
    </g>
  </g>
</g>
  <g class="guide ylabels" font-size="2.82" font-family="'PT Sans Caption','Helvetica Neue','Helvetica',sans-serif" fill="#6C606B" id="img-06c293c1-12">
    <text x="11.69" y="80.32" text-anchor="end" dy="0.35em">0.00</text>
    <text x="11.69" y="58.41" text-anchor="end" dy="0.35em">0.05</text>
    <text x="11.69" y="36.51" text-anchor="end" dy="0.35em">0.10</text>
    <text x="11.69" y="14.61" text-anchor="end" dy="0.35em">0.15</text>
  </g>
  <g font-size="3.88" font-family="'PT Sans','Helvetica Neue','Helvetica',sans-serif" fill="#564A55" stroke="#000000" stroke-opacity="0.000" id="img-06c293c1-13">
    <text x="80.05" y="10.61" text-anchor="middle">充卡前余额</text>
  </g>
</g>
<defs>
  <clipPath id="img-06c293c1-4">
  <path d="M12.69,12.61 L 147.4 12.61 147.4 82.32 12.69 82.32" />
</clipPath>
</defs>
</svg>
