<?xml version="1.0" encoding="UTF-8"?>
<svg xmlns="http://www.w3.org/2000/svg"
     xmlns:xlink="http://www.w3.org/1999/xlink"
     xmlns:gadfly="http://www.gadflyjl.org/ns"
     version="1.2"
     width="152.4mm" height="101.6mm" viewBox="0 0 152.4 101.6"
     stroke="none"
     fill="#000000"
     stroke-width="0.3"
     font-size="3.88"
>
<g class="plotroot yscalable" id="img-9ae4a14d-1">
  <g font-size="3.88" font-family="'PT Sans','Helvetica Neue','Helvetica',sans-serif" fill="#564A55" stroke="#000000" stroke-opacity="0.000" id="img-9ae4a14d-2">
    <text x="83.26" y="89.99" text-anchor="middle" dy="0.6em">amount</text>
  </g>
  <g class="guide xlabels" font-size="2.82" font-family="'PT Sans Caption','Helvetica Neue','Helvetica',sans-serif" fill="#6C606B" id="img-9ae4a14d-3">
    <text x="27.13" y="83.32" text-anchor="middle" dy="0.6em">2.0</text>
    <text x="35.15" y="83.32" text-anchor="middle" dy="0.6em">3.0</text>
    <text x="43.17" y="83.32" text-anchor="middle" dy="0.6em">6.0</text>
    <text x="51.18" y="83.32" text-anchor="middle" dy="0.6em">9.0</text>
    <text x="59.2" y="83.32" text-anchor="middle" dy="0.6em">12.0</text>
    <text x="67.22" y="83.32" text-anchor="middle" dy="0.6em">13.0</text>
    <text x="75.24" y="83.32" text-anchor="middle" dy="0.6em">15.0</text>
    <text x="83.26" y="83.32" text-anchor="middle" dy="0.6em">18.0</text>
    <text x="91.27" y="83.32" text-anchor="middle" dy="0.6em">21.0</text>
    <text x="99.29" y="83.32" text-anchor="middle" dy="0.6em">24.0</text>
    <text x="107.31" y="83.32" text-anchor="middle" dy="0.6em">27.0</text>
    <text x="115.33" y="83.32" text-anchor="middle" dy="0.6em">30.0</text>
    <text x="123.35" y="83.32" text-anchor="middle" dy="0.6em">45.0</text>
    <text x="131.36" y="83.32" text-anchor="middle" dy="0.6em">63.0</text>
    <text x="139.38" y="83.32" text-anchor="middle" dy="0.6em">90.0</text>
  </g>
<g clip-path="url(#img-9ae4a14d-4)">
  <g id="img-9ae4a14d-5">
    <g pointer-events="visible" opacity="1" fill="#000000" fill-opacity="0.000" stroke="#000000" stroke-opacity="0.000" class="guide background" id="img-9ae4a14d-6">
      <rect x="19.11" y="12.61" width="128.29" height="69.7"/>
    </g>
    <g class="guide ygridlines xfixed" stroke-dasharray="0.5,0.5" stroke-width="0.2" stroke="#D0D0E0" id="img-9ae4a14d-7">
      <path fill="none" d="M19.11,80.32 L 147.4 80.32"/>
      <path fill="none" d="M19.11,67.17 L 147.4 67.17"/>
      <path fill="none" d="M19.11,54.03 L 147.4 54.03"/>
      <path fill="none" d="M19.11,40.89 L 147.4 40.89"/>
      <path fill="none" d="M19.11,27.75 L 147.4 27.75"/>
      <path fill="none" d="M19.11,14.61 L 147.4 14.61"/>
    </g>
    <g class="guide xgridlines yfixed" stroke-dasharray="0.5,0.5" stroke-width="0.2" stroke="#D0D0E0" id="img-9ae4a14d-8">
      <path fill="none" d="M31.14,12.61 L 31.14 82.32"/>
      <path fill="none" d="M39.16,12.61 L 39.16 82.32"/>
      <path fill="none" d="M47.18,12.61 L 47.18 82.32"/>
      <path fill="none" d="M55.19,12.61 L 55.19 82.32"/>
      <path fill="none" d="M63.21,12.61 L 63.21 82.32"/>
      <path fill="none" d="M71.23,12.61 L 71.23 82.32"/>
      <path fill="none" d="M79.25,12.61 L 79.25 82.32"/>
      <path fill="none" d="M87.27,12.61 L 87.27 82.32"/>
      <path fill="none" d="M95.28,12.61 L 95.28 82.32"/>
      <path fill="none" d="M103.3,12.61 L 103.3 82.32"/>
      <path fill="none" d="M111.32,12.61 L 111.32 82.32"/>
      <path fill="none" d="M119.34,12.61 L 119.34 82.32"/>
      <path fill="none" d="M127.36,12.61 L 127.36 82.32"/>
      <path fill="none" d="M135.37,12.61 L 135.37 82.32"/>
    </g>
    <g class="plotpanel" id="img-9ae4a14d-9">
      <g shape-rendering="crispEdges" stroke-width="0.3" id="img-9ae4a14d-10">
        <g stroke="#000000" stroke-opacity="0.000" fill="#00BFFF" class="geometry" id="img-9ae4a14d-11">
          <rect x="24.12" y="80.3" width="6.02" height="0.01"/>
          <rect x="32.14" y="14.94" width="6.02" height="65.37"/>
          <rect x="40.16" y="61.52" width="6.02" height="18.79"/>
          <rect x="48.18" y="74.97" width="6.02" height="5.35"/>
          <rect x="56.19" y="79.58" width="6.02" height="0.74"/>
          <rect x="64.21" y="80.3" width="6.02" height="0.01"/>
          <rect x="72.23" y="78.92" width="6.02" height="1.39"/>
          <rect x="80.25" y="80.16" width="6.02" height="0.16"/>
          <rect x="88.27" y="80.2" width="6.02" height="0.12"/>
          <rect x="96.28" y="80.28" width="6.02" height="0.04"/>
          <rect x="104.3" y="80.29" width="6.02" height="0.03"/>
          <rect x="112.32" y="80.13" width="6.02" height="0.18"/>
          <rect x="120.34" y="80.3" width="6.02" height="0.01"/>
          <rect x="128.36" y="80.3" width="6.02" height="0.01"/>
          <rect x="136.37" y="80.3" width="6.02" height="0.01"/>
        </g>
      </g>
    </g>
  </g>
</g>
  <g class="guide ylabels" font-size="2.82" font-family="'PT Sans Caption','Helvetica Neue','Helvetica',sans-serif" fill="#6C606B" id="img-9ae4a14d-12">
    <text x="18.11" y="80.32" text-anchor="end" dy="0.35em">0</text>
    <text x="18.11" y="67.17" text-anchor="end" dy="0.35em">1.0×10³</text>
    <text x="18.11" y="54.03" text-anchor="end" dy="0.35em">2.0×10³</text>
    <text x="18.11" y="40.89" text-anchor="end" dy="0.35em">3.0×10³</text>
    <text x="18.11" y="27.75" text-anchor="end" dy="0.35em">4.0×10³</text>
    <text x="18.11" y="14.61" text-anchor="end" dy="0.35em">5.0×10³</text>
  </g>
  <g font-size="3.88" font-family="'PT Sans','Helvetica Neue','Helvetica',sans-serif" fill="#564A55" stroke="#000000" stroke-opacity="0.000" id="img-9ae4a14d-13">
    <text x="83.26" y="10.61" text-anchor="middle">单次购买洗衣币金额</text>
  </g>
</g>
<defs>
  <clipPath id="img-9ae4a14d-4">
  <path d="M19.11,12.61 L 147.4 12.61 147.4 82.32 19.11 82.32" />
</clipPath>
</defs>
</svg>
