<?xml version="1.0" encoding="UTF-8"?>
<svg xmlns="http://www.w3.org/2000/svg"
     xmlns:xlink="http://www.w3.org/1999/xlink"
     xmlns:gadfly="http://www.gadflyjl.org/ns"
     version="1.2"
     width="152.4mm" height="101.6mm" viewBox="0 0 152.4 101.6"
     stroke="none"
     fill="#000000"
     stroke-width="0.3"
     font-size="3.88"
>
<g class="plotroot yscalable" id="img-cfe26dad-1">
  <g font-size="3.88" font-family="'PT Sans','Helvetica Neue','Helvetica',sans-serif" fill="#564A55" stroke="#000000" stroke-opacity="0.000" id="img-cfe26dad-2">
    <text x="82.68" y="89.99" text-anchor="middle" dy="0.6em">position</text>
  </g>
  <g class="guide xlabels" font-size="2.82" font-family="'PT Sans Caption','Helvetica Neue','Helvetica',sans-serif" fill="#6C606B" id="img-cfe26dad-3">
    <text x="26.05" y="83.32" text-anchor="middle" dy="0.6em">学苑</text>
    <text x="42.23" y="83.32" text-anchor="middle" dy="0.6em">学士</text>
    <text x="58.41" y="83.32" text-anchor="middle" dy="0.6em">天香</text>
    <text x="74.59" y="83.32" text-anchor="middle" dy="0.6em">清泽</text>
    <text x="90.77" y="83.32" text-anchor="middle" dy="0.6em">锦绣</text>
    <text x="106.95" y="83.32" text-anchor="middle" dy="0.6em">黑店</text>
    <text x="123.13" y="83.32" text-anchor="middle" dy="0.6em">饺子园</text>
    <text x="139.31" y="83.32" text-anchor="middle" dy="0.6em">土木</text>
  </g>
<g clip-path="url(#img-cfe26dad-4)">
  <g id="img-cfe26dad-5">
    <g pointer-events="visible" opacity="1" fill="#000000" fill-opacity="0.000" stroke="#000000" stroke-opacity="0.000" class="guide background" id="img-cfe26dad-6">
      <rect x="17.96" y="12.61" width="129.44" height="69.7"/>
    </g>
    <g class="guide ygridlines xfixed" stroke-dasharray="0.5,0.5" stroke-width="0.2" stroke="#D0D0E0" id="img-cfe26dad-7">
      <path fill="none" d="M17.96,80.32 L 147.4 80.32"/>
      <path fill="none" d="M17.96,58.41 L 147.4 58.41"/>
      <path fill="none" d="M17.96,36.51 L 147.4 36.51"/>
      <path fill="none" d="M17.96,14.61 L 147.4 14.61"/>
    </g>
    <g class="guide xgridlines yfixed" stroke-dasharray="0.5,0.5" stroke-width="0.2" stroke="#D0D0E0" id="img-cfe26dad-8">
      <path fill="none" d="M34.14,12.61 L 34.14 82.32"/>
      <path fill="none" d="M50.32,12.61 L 50.32 82.32"/>
      <path fill="none" d="M66.5,12.61 L 66.5 82.32"/>
      <path fill="none" d="M82.68,12.61 L 82.68 82.32"/>
      <path fill="none" d="M98.86,12.61 L 98.86 82.32"/>
      <path fill="none" d="M115.04,12.61 L 115.04 82.32"/>
      <path fill="none" d="M131.22,12.61 L 131.22 82.32"/>
    </g>
    <g class="plotpanel" id="img-cfe26dad-9">
      <g shape-rendering="crispEdges" stroke-width="0.3" id="img-cfe26dad-10">
        <g stroke="#000000" stroke-opacity="0.000" fill="#00BFFF" class="geometry" id="img-cfe26dad-11">
          <rect x="18.96" y="41.03" width="14.18" height="39.28"/>
          <rect x="35.14" y="53.46" width="14.18" height="26.86"/>
          <rect x="51.32" y="35.73" width="14.18" height="44.58"/>
          <rect x="67.5" y="44.56" width="14.18" height="35.76"/>
          <rect x="83.68" y="46.37" width="14.18" height="33.94"/>
          <rect x="99.86" y="27.45" width="14.18" height="52.86"/>
          <rect x="116.04" y="38.32" width="14.18" height="41.99"/>
          <rect x="132.22" y="44.72" width="14.18" height="35.6"/>
        </g>
      </g>
    </g>
  </g>
</g>
  <g class="guide ylabels" font-size="2.82" font-family="'PT Sans Caption','Helvetica Neue','Helvetica',sans-serif" fill="#6C606B" id="img-cfe26dad-12">
    <text x="16.96" y="80.32" text-anchor="end" dy="0.35em">0</text>
    <text x="16.96" y="58.41" text-anchor="end" dy="0.35em">5</text>
    <text x="16.96" y="36.51" text-anchor="end" dy="0.35em">10</text>
    <text x="16.96" y="14.61" text-anchor="end" dy="0.35em">15</text>
  </g>
  <g font-size="3.88" font-family="'PT Sans','Helvetica Neue','Helvetica',sans-serif" fill="#564A55" stroke="#000000" stroke-opacity="0.000" id="img-cfe26dad-13">
    <text x="8.81" y="45.46" text-anchor="middle" dy="0.35em" transform="rotate(-90, 8.81, 47.46)">amount_mean</text>
  </g>
  <g font-size="3.88" font-family="'PT Sans','Helvetica Neue','Helvetica',sans-serif" fill="#564A55" stroke="#000000" stroke-opacity="0.000" id="img-cfe26dad-14">
    <text x="82.68" y="10.61" text-anchor="middle">各食堂平均消费</text>
  </g>
</g>
<defs>
  <clipPath id="img-cfe26dad-4">
  <path d="M17.96,12.61 L 147.4 12.61 147.4 82.32 17.96 82.32" />
</clipPath>
</defs>
</svg>
