<?xml version="1.0" encoding="UTF-8"?>
<svg xmlns="http://www.w3.org/2000/svg"
     xmlns:xlink="http://www.w3.org/1999/xlink"
     xmlns:gadfly="http://www.gadflyjl.org/ns"
     version="1.2"
     width="304.8mm" height="101.6mm" viewBox="0 0 304.8 101.6"
     stroke="none"
     fill="#000000"
     stroke-width="0.3"
     font-size="3.88"
>
<g class="plotroot yscalable" id="img-907937be-1">
  <g font-size="3.88" font-family="'PT Sans','Helvetica Neue','Helvetica',sans-serif" fill="#564A55" stroke="#000000" stroke-opacity="0.000" id="img-907937be-2">
    <text x="155.91" y="89.99" text-anchor="middle" dy="0.6em">major</text>
  </g>
  <g class="guide xlabels" font-size="2.82" font-family="'PT Sans Caption','Helvetica Neue','Helvetica',sans-serif" fill="#6C606B" id="img-907937be-3">
    <text x="15.71" y="50.39" text-anchor="end" dy="0.35em" transform="rotate(-90, 15.71, 50.39)">自动化</text>
    <text x="19.4" y="50.39" text-anchor="end" dy="0.35em" transform="rotate(-90, 19.4, 50.39)">土木工程</text>
    <text x="23.09" y="50.39" text-anchor="end" dy="0.35em" transform="rotate(-90, 23.09, 50.39)">国际经济与贸易</text>
    <text x="26.78" y="50.39" text-anchor="end" dy="0.35em" transform="rotate(-90, 26.78, 50.39)">复合材料与工程</text>
    <text x="30.47" y="50.39" text-anchor="end" dy="0.35em" transform="rotate(-90, 30.47, 50.39)">工业设计</text>
    <text x="34.16" y="50.39" text-anchor="end" dy="0.35em" transform="rotate(-90, 34.16, 50.39)">会计学</text>
    <text x="37.85" y="50.39" text-anchor="end" dy="0.35em" transform="rotate(-90, 37.85, 50.39)">电子信息工程</text>
    <text x="41.54" y="50.39" text-anchor="end" dy="0.35em" transform="rotate(-90, 41.54, 50.39)">材料化学</text>
    <text x="45.23" y="50.39" text-anchor="end" dy="0.35em" transform="rotate(-90, 45.23, 50.39)">环境工程</text>
    <text x="48.91" y="50.39" text-anchor="end" dy="0.35em" transform="rotate(-90, 48.91, 50.39)">机械设计制造及其自动化</text>
    <text x="52.6" y="50.39" text-anchor="end" dy="0.35em" transform="rotate(-90, 52.6, 50.39)">高分子材料与工程</text>
    <text x="56.29" y="50.39" text-anchor="end" dy="0.35em" transform="rotate(-90, 56.29, 50.39)">核物理</text>
    <text x="59.98" y="50.39" text-anchor="end" dy="0.35em" transform="rotate(-90, 59.98, 50.39)">工业工程</text>
    <text x="63.67" y="50.39" text-anchor="end" dy="0.35em" transform="rotate(-90, 63.67, 50.39)">工程管理</text>
    <text x="67.36" y="50.39" text-anchor="end" dy="0.35em" transform="rotate(-90, 67.36, 50.39)">计算机科学与技术</text>
    <text x="71.05" y="50.39" text-anchor="end" dy="0.35em" transform="rotate(-90, 71.05, 50.39)">电气工程及其自动化</text>
    <text x="74.74" y="50.39" text-anchor="end" dy="0.35em" transform="rotate(-90, 74.74, 50.39)">材料成型及控制工程</text>
    <text x="78.43" y="50.39" text-anchor="end" dy="0.35em" transform="rotate(-90, 78.43, 50.39)">光电子材料与器件</text>
    <text x="82.12" y="50.39" text-anchor="end" dy="0.35em" transform="rotate(-90, 82.12, 50.39)">金融学</text>
    <text x="85.81" y="50.39" text-anchor="end" dy="0.35em" transform="rotate(-90, 85.81, 50.39)">信息与计算科学</text>
    <text x="89.5" y="50.39" text-anchor="end" dy="0.35em" transform="rotate(-90, 89.5, 50.39)">材料科学与工程</text>
    <text x="93.19" y="50.39" text-anchor="end" dy="0.35em" transform="rotate(-90, 93.19, 50.39)">测控技术与仪器</text>
    <text x="96.88" y="50.39" text-anchor="end" dy="0.35em" transform="rotate(-90, 96.88, 50.39)">数学与应用数学</text>
    <text x="100.57" y="50.39" text-anchor="end" dy="0.35em" transform="rotate(-90, 100.57, 50.39)">材料物理</text>
    <text x="104.26" y="50.39" text-anchor="end" dy="0.35em" transform="rotate(-90, 104.26, 50.39)">给排水科学与工程</text>
    <text x="107.95" y="50.39" text-anchor="end" dy="0.35em" transform="rotate(-90, 107.95, 50.39)">建筑学</text>
    <text x="111.64" y="50.39" text-anchor="end" dy="0.35em" transform="rotate(-90, 111.64, 50.39)">热能与动力工程</text>
    <text x="115.33" y="50.39" text-anchor="end" dy="0.35em" transform="rotate(-90, 115.33, 50.39)">化学工程与工艺</text>
    <text x="119.02" y="50.39" text-anchor="end" dy="0.35em" transform="rotate(-90, 119.02, 50.39)">应用物理学</text>
    <text x="122.7" y="50.39" text-anchor="end" dy="0.35em" transform="rotate(-90, 122.7, 50.39)">飞行器设计与工程</text>
    <text x="126.39" y="50.39" text-anchor="end" dy="0.35em" transform="rotate(-90, 126.39, 50.39)">软件工程</text>
    <text x="130.08" y="50.39" text-anchor="end" dy="0.35em" transform="rotate(-90, 130.08, 50.39)">道路桥梁与渡河工程</text>
    <text x="133.77" y="50.39" text-anchor="end" dy="0.35em" transform="rotate(-90, 133.77, 50.39)">电气工程及其自动化（中外合作）</text>
    <text x="137.46" y="50.39" text-anchor="end" dy="0.35em" transform="rotate(-90, 137.46, 50.39)">焊接技术与工程</text>
    <text x="141.15" y="50.39" text-anchor="end" dy="0.35em" transform="rotate(-90, 141.15, 50.39)">电子科学与技术</text>
    <text x="144.84" y="50.39" text-anchor="end" dy="0.35em" transform="rotate(-90, 144.84, 50.39)">信息管理与信息系统</text>
    <text x="148.53" y="50.39" text-anchor="end" dy="0.35em" transform="rotate(-90, 148.53, 50.39)">城市规划</text>
    <text x="152.22" y="50.39" text-anchor="end" dy="0.35em" transform="rotate(-90, 152.22, 50.39)">艺术设计</text>
    <text x="155.91" y="50.39" text-anchor="end" dy="0.35em" transform="rotate(-90, 155.91, 50.39)">交通工程</text>
    <text x="159.6" y="50.39" text-anchor="end" dy="0.35em" transform="rotate(-90, 159.6, 50.39)">广播电视编导</text>
    <text x="163.29" y="50.39" text-anchor="end" dy="0.35em" transform="rotate(-90, 163.29, 50.39)">光信息科学与技术</text>
    <text x="166.98" y="50.39" text-anchor="end" dy="0.35em" transform="rotate(-90, 166.98, 50.39)">电子信息科学与技术</text>
    <text x="170.67" y="50.39" text-anchor="end" dy="0.35em" transform="rotate(-90, 170.67, 50.39)">通信工程</text>
    <text x="174.36" y="50.39" text-anchor="end" dy="0.35em" transform="rotate(-90, 174.36, 50.39)">俄语</text>
    <text x="178.05" y="50.39" text-anchor="end" dy="0.35em" transform="rotate(-90, 178.05, 50.39)">电子封装技术</text>
    <text x="181.74" y="50.39" text-anchor="end" dy="0.35em" transform="rotate(-90, 181.74, 50.39)">物联网工程</text>
    <text x="185.43" y="50.39" text-anchor="end" dy="0.35em" transform="rotate(-90, 185.43, 50.39)">生物信息技术</text>
    <text x="189.12" y="50.39" text-anchor="end" dy="0.35em" transform="rotate(-90, 189.12, 50.39)">生物工程</text>
    <text x="192.8" y="50.39" text-anchor="end" dy="0.35em" transform="rotate(-90, 192.8, 50.39)">遥感科学与技术</text>
    <text x="196.49" y="50.39" text-anchor="end" dy="0.35em" transform="rotate(-90, 196.49, 50.39)">飞行器制造工程</text>
    <text x="200.18" y="50.39" text-anchor="end" dy="0.35em" transform="rotate(-90, 200.18, 50.39)">飞行器动力工程</text>
    <text x="203.87" y="50.39" text-anchor="end" dy="0.35em" transform="rotate(-90, 203.87, 50.39)">飞行器环境与生命保障工程</text>
    <text x="207.56" y="50.39" text-anchor="end" dy="0.35em" transform="rotate(-90, 207.56, 50.39)">英语</text>
    <text x="211.25" y="50.39" text-anchor="end" dy="0.35em" transform="rotate(-90, 211.25, 50.39)">工商管理</text>
    <text x="214.94" y="50.39" text-anchor="end" dy="0.35em" transform="rotate(-90, 214.94, 50.39)">建筑环境与设备工程</text>
    <text x="218.63" y="50.39" text-anchor="end" dy="0.35em" transform="rotate(-90, 218.63, 50.39)">工程力学</text>
    <text x="222.32" y="50.39" text-anchor="end" dy="0.35em" transform="rotate(-90, 222.32, 50.39)">社会学</text>
    <text x="226.01" y="50.39" text-anchor="end" dy="0.35em" transform="rotate(-90, 226.01, 50.39)">景观学</text>
    <text x="229.7" y="50.39" text-anchor="end" dy="0.35em" transform="rotate(-90, 229.7, 50.39)">信息安全</text>
    <text x="233.39" y="50.39" text-anchor="end" dy="0.35em" transform="rotate(-90, 233.39, 50.39)">食品科学与工程</text>
    <text x="237.08" y="50.39" text-anchor="end" dy="0.35em" transform="rotate(-90, 237.08, 50.39)">经济学</text>
    <text x="240.77" y="50.39" text-anchor="end" dy="0.35em" transform="rotate(-90, 240.77, 50.39)">空间科学与技术</text>
    <text x="244.46" y="50.39" text-anchor="end" dy="0.35em" transform="rotate(-90, 244.46, 50.39)">信息对抗技术</text>
    <text x="248.15" y="50.39" text-anchor="end" dy="0.35em" transform="rotate(-90, 248.15, 50.39)">探测制导与控制技术</text>
    <text x="251.84" y="50.39" text-anchor="end" dy="0.35em" transform="rotate(-90, 251.84, 50.39)">生物技术</text>
    <text x="255.53" y="50.39" text-anchor="end" dy="0.35em" transform="rotate(-90, 255.53, 50.39)">电磁场与无线技术</text>
    <text x="259.22" y="50.39" text-anchor="end" dy="0.35em" transform="rotate(-90, 259.22, 50.39)">核化工与核燃料工程</text>
    <text x="262.91" y="50.39" text-anchor="end" dy="0.35em" transform="rotate(-90, 262.91, 50.39)">法学</text>
    <text x="266.59" y="50.39" text-anchor="end" dy="0.35em" transform="rotate(-90, 266.59, 50.39)">交通信息与控制工程</text>
    <text x="270.28" y="50.39" text-anchor="end" dy="0.35em" transform="rotate(-90, 270.28, 50.39)">财务管理</text>
    <text x="273.97" y="50.39" text-anchor="end" dy="0.35em" transform="rotate(-90, 273.97, 50.39)">市场营销</text>
    <text x="277.66" y="50.39" text-anchor="end" dy="0.35em" transform="rotate(-90, 277.66, 50.39)">环境科学</text>
    <text x="281.35" y="50.39" text-anchor="end" dy="0.35em" transform="rotate(-90, 281.35, 50.39)">日语</text>
    <text x="285.04" y="50.39" text-anchor="end" dy="0.35em" transform="rotate(-90, 285.04, 50.39)">广告学</text>
    <text x="288.73" y="50.39" text-anchor="end" dy="0.35em" transform="rotate(-90, 288.73, 50.39)">能源化学工程</text>
    <text x="292.42" y="50.39" text-anchor="end" dy="0.35em" transform="rotate(-90, 292.42, 50.39)">核反应堆工程</text>
    <text x="296.11" y="50.39" text-anchor="end" dy="0.35em" transform="rotate(-90, 296.11, 50.39)">应用化学</text>
  </g>
<g clip-path="url(#img-907937be-4)">
  <g id="img-907937be-5">
    <g pointer-events="visible" opacity="1" fill="#000000" fill-opacity="0.000" stroke="#000000" stroke-opacity="0.000" class="guide background" id="img-907937be-6">
      <rect x="12.02" y="12.61" width="287.78" height="36.78"/>
    </g>
    <g class="guide ygridlines xfixed" stroke-dasharray="0.5,0.5" stroke-width="0.2" stroke="#D0D0E0" id="img-907937be-7">
      <path fill="none" d="M12.02,47.39 L 299.8 47.39"/>
      <path fill="none" d="M12.02,39.19 L 299.8 39.19"/>
      <path fill="none" d="M12.02,31 L 299.8 31"/>
      <path fill="none" d="M12.02,22.81 L 299.8 22.81"/>
      <path fill="none" d="M12.02,14.61 L 299.8 14.61"/>
    </g>
    <g class="guide xgridlines yfixed" stroke-dasharray="0.5,0.5" stroke-width="0.2" stroke="#D0D0E0" id="img-907937be-8">
      <path fill="none" d="M17.55,12.61 L 17.55 49.39"/>
      <path fill="none" d="M21.24,12.61 L 21.24 49.39"/>
      <path fill="none" d="M24.93,12.61 L 24.93 49.39"/>
      <path fill="none" d="M28.62,12.61 L 28.62 49.39"/>
      <path fill="none" d="M32.31,12.61 L 32.31 49.39"/>
      <path fill="none" d="M36,12.61 L 36 49.39"/>
      <path fill="none" d="M39.69,12.61 L 39.69 49.39"/>
      <path fill="none" d="M43.38,12.61 L 43.38 49.39"/>
      <path fill="none" d="M47.07,12.61 L 47.07 49.39"/>
      <path fill="none" d="M50.76,12.61 L 50.76 49.39"/>
      <path fill="none" d="M54.45,12.61 L 54.45 49.39"/>
      <path fill="none" d="M58.14,12.61 L 58.14 49.39"/>
      <path fill="none" d="M61.83,12.61 L 61.83 49.39"/>
      <path fill="none" d="M65.52,12.61 L 65.52 49.39"/>
      <path fill="none" d="M69.21,12.61 L 69.21 49.39"/>
      <path fill="none" d="M72.9,12.61 L 72.9 49.39"/>
      <path fill="none" d="M76.59,12.61 L 76.59 49.39"/>
      <path fill="none" d="M80.28,12.61 L 80.28 49.39"/>
      <path fill="none" d="M83.96,12.61 L 83.96 49.39"/>
      <path fill="none" d="M87.65,12.61 L 87.65 49.39"/>
      <path fill="none" d="M91.34,12.61 L 91.34 49.39"/>
      <path fill="none" d="M95.03,12.61 L 95.03 49.39"/>
      <path fill="none" d="M98.72,12.61 L 98.72 49.39"/>
      <path fill="none" d="M102.41,12.61 L 102.41 49.39"/>
      <path fill="none" d="M106.1,12.61 L 106.1 49.39"/>
      <path fill="none" d="M109.79,12.61 L 109.79 49.39"/>
      <path fill="none" d="M113.48,12.61 L 113.48 49.39"/>
      <path fill="none" d="M117.17,12.61 L 117.17 49.39"/>
      <path fill="none" d="M120.86,12.61 L 120.86 49.39"/>
      <path fill="none" d="M124.55,12.61 L 124.55 49.39"/>
      <path fill="none" d="M128.24,12.61 L 128.24 49.39"/>
      <path fill="none" d="M131.93,12.61 L 131.93 49.39"/>
      <path fill="none" d="M135.62,12.61 L 135.62 49.39"/>
      <path fill="none" d="M139.31,12.61 L 139.31 49.39"/>
      <path fill="none" d="M143,12.61 L 143 49.39"/>
      <path fill="none" d="M146.69,12.61 L 146.69 49.39"/>
      <path fill="none" d="M150.38,12.61 L 150.38 49.39"/>
      <path fill="none" d="M154.07,12.61 L 154.07 49.39"/>
      <path fill="none" d="M157.75,12.61 L 157.75 49.39"/>
      <path fill="none" d="M161.44,12.61 L 161.44 49.39"/>
      <path fill="none" d="M165.13,12.61 L 165.13 49.39"/>
      <path fill="none" d="M168.82,12.61 L 168.82 49.39"/>
      <path fill="none" d="M172.51,12.61 L 172.51 49.39"/>
      <path fill="none" d="M176.2,12.61 L 176.2 49.39"/>
      <path fill="none" d="M179.89,12.61 L 179.89 49.39"/>
      <path fill="none" d="M183.58,12.61 L 183.58 49.39"/>
      <path fill="none" d="M187.27,12.61 L 187.27 49.39"/>
      <path fill="none" d="M190.96,12.61 L 190.96 49.39"/>
      <path fill="none" d="M194.65,12.61 L 194.65 49.39"/>
      <path fill="none" d="M198.34,12.61 L 198.34 49.39"/>
      <path fill="none" d="M202.03,12.61 L 202.03 49.39"/>
      <path fill="none" d="M205.72,12.61 L 205.72 49.39"/>
      <path fill="none" d="M209.41,12.61 L 209.41 49.39"/>
      <path fill="none" d="M213.1,12.61 L 213.1 49.39"/>
      <path fill="none" d="M216.79,12.61 L 216.79 49.39"/>
      <path fill="none" d="M220.48,12.61 L 220.48 49.39"/>
      <path fill="none" d="M224.17,12.61 L 224.17 49.39"/>
      <path fill="none" d="M227.85,12.61 L 227.85 49.39"/>
      <path fill="none" d="M231.54,12.61 L 231.54 49.39"/>
      <path fill="none" d="M235.23,12.61 L 235.23 49.39"/>
      <path fill="none" d="M238.92,12.61 L 238.92 49.39"/>
      <path fill="none" d="M242.61,12.61 L 242.61 49.39"/>
      <path fill="none" d="M246.3,12.61 L 246.3 49.39"/>
      <path fill="none" d="M249.99,12.61 L 249.99 49.39"/>
      <path fill="none" d="M253.68,12.61 L 253.68 49.39"/>
      <path fill="none" d="M257.37,12.61 L 257.37 49.39"/>
      <path fill="none" d="M261.06,12.61 L 261.06 49.39"/>
      <path fill="none" d="M264.75,12.61 L 264.75 49.39"/>
      <path fill="none" d="M268.44,12.61 L 268.44 49.39"/>
      <path fill="none" d="M272.13,12.61 L 272.13 49.39"/>
      <path fill="none" d="M275.82,12.61 L 275.82 49.39"/>
      <path fill="none" d="M279.51,12.61 L 279.51 49.39"/>
      <path fill="none" d="M283.2,12.61 L 283.2 49.39"/>
      <path fill="none" d="M286.89,12.61 L 286.89 49.39"/>
      <path fill="none" d="M290.58,12.61 L 290.58 49.39"/>
      <path fill="none" d="M294.27,12.61 L 294.27 49.39"/>
    </g>
    <g class="plotpanel" id="img-907937be-9">
      <g shape-rendering="crispEdges" stroke-width="0.3" id="img-907937be-10">
        <g stroke="#000000" stroke-opacity="0.000" fill="#00BFFF" class="geometry" id="img-907937be-11">
          <rect x="13.84" y="33.54" width="3.74" height="13.85"/>
          <rect x="17.53" y="25.92" width="3.74" height="21.47"/>
          <rect x="21.22" y="41.98" width="3.74" height="5.41"/>
          <rect x="24.91" y="45.42" width="3.74" height="1.97"/>
          <rect x="28.6" y="45.75" width="3.74" height="1.64"/>
          <rect x="32.29" y="44.27" width="3.74" height="3.11"/>
          <rect x="35.98" y="39.36" width="3.74" height="8.03"/>
          <rect x="39.67" y="44.03" width="3.74" height="3.36"/>
          <rect x="43.36" y="44.19" width="3.74" height="3.2"/>
          <rect x="47.05" y="21.25" width="3.74" height="26.14"/>
          <rect x="50.73" y="45.67" width="3.74" height="1.72"/>
          <rect x="54.42" y="46.41" width="3.74" height="0.98"/>
          <rect x="58.11" y="46.24" width="3.74" height="1.15"/>
          <rect x="61.8" y="44.27" width="3.74" height="3.11"/>
          <rect x="65.49" y="30.34" width="3.74" height="17.04"/>
          <rect x="69.18" y="21.9" width="3.74" height="25.48"/>
          <rect x="72.87" y="41.08" width="3.74" height="6.31"/>
          <rect x="76.56" y="46.16" width="3.74" height="1.23"/>
          <rect x="80.25" y="44.77" width="3.74" height="2.62"/>
          <rect x="83.94" y="46.32" width="3.74" height="1.07"/>
          <rect x="87.63" y="38.46" width="3.74" height="8.93"/>
          <rect x="91.32" y="33.62" width="3.74" height="13.77"/>
          <rect x="95.01" y="44.11" width="3.74" height="3.28"/>
          <rect x="98.7" y="45.5" width="3.74" height="1.88"/>
          <rect x="102.39" y="42.72" width="3.74" height="4.67"/>
          <rect x="106.08" y="37.06" width="3.74" height="10.32"/>
          <rect x="109.77" y="37.15" width="3.74" height="10.24"/>
          <rect x="113.46" y="44.36" width="3.74" height="3.03"/>
          <rect x="117.15" y="45.01" width="3.74" height="2.38"/>
          <rect x="120.83" y="40.42" width="3.74" height="6.97"/>
          <rect x="124.52" y="38.05" width="3.74" height="9.34"/>
          <rect x="128.21" y="40.59" width="3.74" height="6.8"/>
          <rect x="131.9" y="46.41" width="3.74" height="0.98"/>
          <rect x="135.59" y="41" width="3.74" height="6.39"/>
          <rect x="139.28" y="41.73" width="3.74" height="5.65"/>
          <rect x="142.97" y="45.09" width="3.74" height="2.29"/>
          <rect x="146.66" y="44.11" width="3.74" height="3.28"/>
          <rect x="150.35" y="44.11" width="3.74" height="3.28"/>
          <rect x="154.04" y="45.67" width="3.74" height="1.72"/>
          <rect x="157.73" y="45.75" width="3.74" height="1.64"/>
          <rect x="161.42" y="44.27" width="3.74" height="3.11"/>
          <rect x="165.11" y="41.16" width="3.74" height="6.23"/>
          <rect x="168.8" y="37.56" width="3.74" height="9.83"/>
          <rect x="172.49" y="43.7" width="3.74" height="3.69"/>
          <rect x="176.18" y="45.34" width="3.74" height="2.05"/>
          <rect x="179.87" y="45.5" width="3.74" height="1.88"/>
          <rect x="183.56" y="46.57" width="3.74" height="0.82"/>
          <rect x="187.25" y="46.08" width="3.74" height="1.31"/>
          <rect x="190.94" y="45.75" width="3.74" height="1.64"/>
          <rect x="194.62" y="44.11" width="3.74" height="3.28"/>
          <rect x="198.31" y="45.5" width="3.74" height="1.88"/>
          <rect x="202" y="46.08" width="3.74" height="1.31"/>
          <rect x="205.69" y="44.68" width="3.74" height="2.7"/>
          <rect x="209.38" y="46.24" width="3.74" height="1.15"/>
          <rect x="213.07" y="43.05" width="3.74" height="4.34"/>
          <rect x="216.76" y="43.7" width="3.74" height="3.69"/>
          <rect x="220.45" y="46" width="3.74" height="1.39"/>
          <rect x="224.14" y="46.16" width="3.74" height="1.23"/>
          <rect x="227.83" y="44.36" width="3.74" height="3.03"/>
          <rect x="231.52" y="46.41" width="3.74" height="0.98"/>
          <rect x="235.21" y="46.57" width="3.74" height="0.82"/>
          <rect x="238.9" y="46.24" width="3.74" height="1.15"/>
          <rect x="242.59" y="45.83" width="3.74" height="1.56"/>
          <rect x="246.28" y="44.03" width="3.74" height="3.36"/>
          <rect x="249.97" y="46.98" width="3.74" height="0.41"/>
          <rect x="253.66" y="45.91" width="3.74" height="1.47"/>
          <rect x="257.35" y="46.65" width="3.74" height="0.74"/>
          <rect x="261.04" y="45.42" width="3.74" height="1.97"/>
          <rect x="264.72" y="46.16" width="3.74" height="1.23"/>
          <rect x="268.41" y="44.85" width="3.74" height="2.54"/>
          <rect x="272.1" y="46.41" width="3.74" height="0.98"/>
          <rect x="275.79" y="46.57" width="3.74" height="0.82"/>
          <rect x="279.48" y="46.08" width="3.74" height="1.31"/>
          <rect x="283.17" y="46.57" width="3.74" height="0.82"/>
          <rect x="286.86" y="46.08" width="3.74" height="1.31"/>
          <rect x="290.55" y="45.83" width="3.74" height="1.56"/>
          <rect x="294.24" y="46.32" width="3.74" height="1.07"/>
        </g>
      </g>
    </g>
  </g>
</g>
  <g class="guide ylabels" font-size="2.82" font-family="'PT Sans Caption','Helvetica Neue','Helvetica',sans-serif" fill="#6C606B" id="img-907937be-12">
    <text x="11.02" y="47.39" text-anchor="end" dy="0.35em">0</text>
    <text x="11.02" y="39.19" text-anchor="end" dy="0.35em">100</text>
    <text x="11.02" y="31" text-anchor="end" dy="0.35em">200</text>
    <text x="11.02" y="22.81" text-anchor="end" dy="0.35em">300</text>
    <text x="11.02" y="14.61" text-anchor="end" dy="0.35em">400</text>
  </g>
  <g font-size="3.88" font-family="'PT Sans','Helvetica Neue','Helvetica',sans-serif" fill="#564A55" stroke="#000000" stroke-opacity="0.000" id="img-907937be-13">
    <text x="155.91" y="10.61" text-anchor="middle">major of students</text>
  </g>
</g>
<defs>
  <clipPath id="img-907937be-4">
  <path d="M12.02,12.61 L 299.8 12.61 299.8 49.39 12.02 49.39" />
</clipPath>
</defs>
</svg>
