<?xml version="1.0" encoding="UTF-8"?>
<svg xmlns="http://www.w3.org/2000/svg"
     xmlns:xlink="http://www.w3.org/1999/xlink"
     xmlns:gadfly="http://www.gadflyjl.org/ns"
     version="1.2"
     width="152.4mm" height="101.6mm" viewBox="0 0 152.4 101.6"
     stroke="none"
     fill="#000000"
     stroke-width="0.3"
     font-size="3.88"
>
<g class="plotroot xscalable yscalable" id="img-bfe8f1e8-1">
  <g font-size="3.88" font-family="'PT Sans','Helvetica Neue','Helvetica',sans-serif" fill="#564A55" stroke="#000000" stroke-opacity="0.000" id="img-bfe8f1e8-2">
    <text x="83.52" y="89.99" text-anchor="middle" dy="0.6em">月均消费额</text>
  </g>
  <g class="guide xlabels" font-size="2.82" font-family="'PT Sans Caption','Helvetica Neue','Helvetica',sans-serif" fill="#6C606B" id="img-bfe8f1e8-3">
    <text x="21.63" y="83.32" text-anchor="middle" dy="0.6em">0</text>
    <text x="62.89" y="83.32" text-anchor="middle" dy="0.6em">500</text>
    <text x="104.14" y="83.32" text-anchor="middle" dy="0.6em">1000</text>
    <text x="145.4" y="83.32" text-anchor="middle" dy="0.6em">1500</text>
  </g>
<g clip-path="url(#img-bfe8f1e8-4)">
  <g id="img-bfe8f1e8-5">
    <g pointer-events="visible" opacity="1" fill="#000000" fill-opacity="0.000" stroke="#000000" stroke-opacity="0.000" class="guide background" id="img-bfe8f1e8-6">
      <rect x="19.63" y="12.61" width="127.77" height="69.7"/>
    </g>
    <g class="guide ygridlines xfixed" stroke-dasharray="0.5,0.5" stroke-width="0.2" stroke="#D0D0E0" id="img-bfe8f1e8-7">
      <path fill="none" d="M19.63,80.32 L 147.4 80.32"/>
      <path fill="none" d="M19.63,67.17 L 147.4 67.17"/>
      <path fill="none" d="M19.63,54.03 L 147.4 54.03"/>
      <path fill="none" d="M19.63,40.89 L 147.4 40.89"/>
      <path fill="none" d="M19.63,27.75 L 147.4 27.75"/>
      <path fill="none" d="M19.63,14.61 L 147.4 14.61"/>
    </g>
    <g class="guide xgridlines yfixed" stroke-dasharray="0.5,0.5" stroke-width="0.2" stroke="#D0D0E0" id="img-bfe8f1e8-8">
      <path fill="none" d="M21.63,12.61 L 21.63 82.32"/>
      <path fill="none" d="M62.89,12.61 L 62.89 82.32"/>
      <path fill="none" d="M104.14,12.61 L 104.14 82.32"/>
      <path fill="none" d="M145.4,12.61 L 145.4 82.32"/>
    </g>
    <g class="plotpanel" id="img-bfe8f1e8-9">
      <g shape-rendering="crispEdges" stroke-width="0.3" id="img-bfe8f1e8-10">
        <g stroke="#000000" stroke-opacity="0.000" fill="#00BFFF" class="geometry" id="img-bfe8f1e8-11">
          <rect x="21.61" y="35.77" width="3.15" height="44.55"/>
          <rect x="24.71" y="35.51" width="3.15" height="44.81"/>
          <rect x="27.81" y="27.88" width="3.15" height="52.43"/>
          <rect x="30.91" y="32.61" width="3.15" height="47.7"/>
          <rect x="34.01" y="26.31" width="3.15" height="54.01"/>
          <rect x="37.11" y="16.98" width="3.15" height="63.34"/>
          <rect x="40.2" y="23.68" width="3.15" height="56.64"/>
          <rect x="43.3" y="15.79" width="3.15" height="64.52"/>
          <rect x="46.4" y="18.03" width="3.15" height="62.29"/>
          <rect x="49.5" y="20.26" width="3.15" height="60.05"/>
          <rect x="52.6" y="17.63" width="3.15" height="62.68"/>
          <rect x="55.7" y="22.23" width="3.15" height="58.08"/>
          <rect x="58.8" y="28.8" width="3.15" height="51.51"/>
          <rect x="61.9" y="32.88" width="3.15" height="47.44"/>
          <rect x="65" y="38.13" width="3.15" height="42.18"/>
          <rect x="68.1" y="44.7" width="3.15" height="35.61"/>
          <rect x="71.2" y="54.03" width="3.15" height="26.28"/>
          <rect x="74.29" y="59.42" width="3.15" height="20.89"/>
          <rect x="77.39" y="62.84" width="3.15" height="17.48"/>
          <rect x="80.49" y="66.25" width="3.15" height="14.06"/>
          <rect x="83.59" y="71.12" width="3.15" height="9.2"/>
          <rect x="86.69" y="72.96" width="3.15" height="7.36"/>
          <rect x="89.79" y="74.53" width="3.15" height="5.78"/>
          <rect x="92.89" y="77.56" width="3.15" height="2.76"/>
          <rect x="95.99" y="77.95" width="3.15" height="2.37"/>
          <rect x="99.09" y="77.56" width="3.15" height="2.76"/>
          <rect x="102.19" y="79.26" width="3.15" height="1.05"/>
          <rect x="105.28" y="78.61" width="3.15" height="1.71"/>
          <rect x="108.38" y="79.66" width="3.15" height="0.66"/>
          <rect x="111.48" y="79.4" width="3.15" height="0.92"/>
          <rect x="114.58" y="80.32" width="3.15" height="0.01"/>
          <rect x="117.68" y="80.05" width="3.15" height="0.26"/>
          <rect x="120.78" y="80.32" width="3.15" height="0.01"/>
          <rect x="123.88" y="79.92" width="3.15" height="0.39"/>
          <rect x="126.98" y="80.18" width="3.15" height="0.13"/>
          <rect x="130.08" y="80.18" width="3.15" height="0.13"/>
          <rect x="133.18" y="80.32" width="3.15" height="0.01"/>
          <rect x="136.28" y="80.32" width="3.15" height="0.01"/>
          <rect x="139.37" y="80.18" width="3.15" height="0.13"/>
        </g>
      </g>
    </g>
  </g>
</g>
  <g class="guide ylabels" font-size="2.82" font-family="'PT Sans Caption','Helvetica Neue','Helvetica',sans-serif" fill="#6C606B" id="img-bfe8f1e8-12">
    <text x="18.63" y="80.32" text-anchor="end" dy="0.35em">0</text>
    <text x="18.63" y="67.17" text-anchor="end" dy="0.35em">100</text>
    <text x="18.63" y="54.03" text-anchor="end" dy="0.35em">200</text>
    <text x="18.63" y="40.89" text-anchor="end" dy="0.35em">300</text>
    <text x="18.63" y="27.75" text-anchor="end" dy="0.35em">400</text>
    <text x="18.63" y="14.61" text-anchor="end" dy="0.35em">500</text>
  </g>
  <g font-size="3.88" font-family="'PT Sans','Helvetica Neue','Helvetica',sans-serif" fill="#564A55" stroke="#000000" stroke-opacity="0.000" id="img-bfe8f1e8-13">
    <text x="8.81" y="45.46" text-anchor="middle" dy="0.35em" transform="rotate(-90, 8.81, 47.46)">人数</text>
  </g>
  <g font-size="3.88" font-family="'PT Sans','Helvetica Neue','Helvetica',sans-serif" fill="#564A55" stroke="#000000" stroke-opacity="0.000" id="img-bfe8f1e8-14">
    <text x="83.52" y="10.61" text-anchor="middle">月均消费额分布</text>
  </g>
</g>
<defs>
  <clipPath id="img-bfe8f1e8-4">
  <path d="M19.63,12.61 L 147.4 12.61 147.4 82.32 19.63 82.32" />
</clipPath>
</defs>
</svg>
