<?xml version="1.0" encoding="UTF-8"?>
<svg xmlns="http://www.w3.org/2000/svg"
     xmlns:xlink="http://www.w3.org/1999/xlink"
     xmlns:gadfly="http://www.gadflyjl.org/ns"
     version="1.2"
     width="304.8mm" height="101.6mm" viewBox="0 0 304.8 101.6"
     stroke="none"
     fill="#000000"
     stroke-width="0.3"
     font-size="3.88"
>
<g class="plotroot yscalable" id="img-7b11d22d-1">
  <g font-size="3.88" font-family="'PT Sans','Helvetica Neue','Helvetica',sans-serif" fill="#564A55" stroke="#000000" stroke-opacity="0.000" id="img-7b11d22d-2">
    <text x="152.27" y="89.99" text-anchor="middle" dy="0.6em">major</text>
  </g>
  <g class="guide xlabels" font-size="2.82" font-family="'PT Sans Caption','Helvetica Neue','Helvetica',sans-serif" fill="#6C606B" id="img-7b11d22d-3">
    <text x="18.17" y="57.51" text-anchor="end" dy="0.35em" transform="rotate(-90, 18.17, 57.51)">交通信息与控制工程</text>
    <text x="21.95" y="57.51" text-anchor="end" dy="0.35em" transform="rotate(-90, 21.95, 57.51)">交通工程</text>
    <text x="25.73" y="57.51" text-anchor="end" dy="0.35em" transform="rotate(-90, 25.73, 57.51)">会计学</text>
    <text x="29.51" y="57.51" text-anchor="end" dy="0.35em" transform="rotate(-90, 29.51, 57.51)">俄语</text>
    <text x="33.28" y="57.51" text-anchor="end" dy="0.35em" transform="rotate(-90, 33.28, 57.51)">信息与计算科学</text>
    <text x="37.06" y="57.51" text-anchor="end" dy="0.35em" transform="rotate(-90, 37.06, 57.51)">信息安全</text>
    <text x="40.84" y="57.51" text-anchor="end" dy="0.35em" transform="rotate(-90, 40.84, 57.51)">信息对抗技术</text>
    <text x="44.61" y="57.51" text-anchor="end" dy="0.35em" transform="rotate(-90, 44.61, 57.51)">信息管理与信息系统</text>
    <text x="48.39" y="57.51" text-anchor="end" dy="0.35em" transform="rotate(-90, 48.39, 57.51)">光信息科学与技术</text>
    <text x="52.17" y="57.51" text-anchor="end" dy="0.35em" transform="rotate(-90, 52.17, 57.51)">光电子材料与器件</text>
    <text x="55.95" y="57.51" text-anchor="end" dy="0.35em" transform="rotate(-90, 55.95, 57.51)">化学工程与工艺</text>
    <text x="59.72" y="57.51" text-anchor="end" dy="0.35em" transform="rotate(-90, 59.72, 57.51)">国际经济与贸易</text>
    <text x="63.5" y="57.51" text-anchor="end" dy="0.35em" transform="rotate(-90, 63.5, 57.51)">土木工程</text>
    <text x="67.28" y="57.51" text-anchor="end" dy="0.35em" transform="rotate(-90, 67.28, 57.51)">城市规划</text>
    <text x="71.06" y="57.51" text-anchor="end" dy="0.35em" transform="rotate(-90, 71.06, 57.51)">复合材料与工程</text>
    <text x="74.83" y="57.51" text-anchor="end" dy="0.35em" transform="rotate(-90, 74.83, 57.51)">工业工程</text>
    <text x="78.61" y="57.51" text-anchor="end" dy="0.35em" transform="rotate(-90, 78.61, 57.51)">工业设计</text>
    <text x="82.39" y="57.51" text-anchor="end" dy="0.35em" transform="rotate(-90, 82.39, 57.51)">工商管理</text>
    <text x="86.16" y="57.51" text-anchor="end" dy="0.35em" transform="rotate(-90, 86.16, 57.51)">工程力学</text>
    <text x="89.94" y="57.51" text-anchor="end" dy="0.35em" transform="rotate(-90, 89.94, 57.51)">工程管理</text>
    <text x="93.72" y="57.51" text-anchor="end" dy="0.35em" transform="rotate(-90, 93.72, 57.51)">市场营销</text>
    <text x="97.5" y="57.51" text-anchor="end" dy="0.35em" transform="rotate(-90, 97.5, 57.51)">广告学</text>
    <text x="101.27" y="57.51" text-anchor="end" dy="0.35em" transform="rotate(-90, 101.27, 57.51)">广播电视编导</text>
    <text x="105.05" y="57.51" text-anchor="end" dy="0.35em" transform="rotate(-90, 105.05, 57.51)">应用化学</text>
    <text x="108.83" y="57.51" text-anchor="end" dy="0.35em" transform="rotate(-90, 108.83, 57.51)">应用物理学</text>
    <text x="112.61" y="57.51" text-anchor="end" dy="0.35em" transform="rotate(-90, 112.61, 57.51)">建筑学</text>
    <text x="116.38" y="57.51" text-anchor="end" dy="0.35em" transform="rotate(-90, 116.38, 57.51)">探测制导与控制技术</text>
    <text x="120.16" y="57.51" text-anchor="end" dy="0.35em" transform="rotate(-90, 120.16, 57.51)">数学与应用数学</text>
    <text x="123.94" y="57.51" text-anchor="end" dy="0.35em" transform="rotate(-90, 123.94, 57.51)">日语</text>
    <text x="127.72" y="57.51" text-anchor="end" dy="0.35em" transform="rotate(-90, 127.72, 57.51)">景观学</text>
    <text x="131.49" y="57.51" text-anchor="end" dy="0.35em" transform="rotate(-90, 131.49, 57.51)">机械设计制造及其自动化</text>
    <text x="135.27" y="57.51" text-anchor="end" dy="0.35em" transform="rotate(-90, 135.27, 57.51)">材料化学</text>
    <text x="139.05" y="57.51" text-anchor="end" dy="0.35em" transform="rotate(-90, 139.05, 57.51)">材料成型及控制工程</text>
    <text x="142.82" y="57.51" text-anchor="end" dy="0.35em" transform="rotate(-90, 142.82, 57.51)">材料物理</text>
    <text x="146.6" y="57.51" text-anchor="end" dy="0.35em" transform="rotate(-90, 146.6, 57.51)">材料科学与工程</text>
    <text x="150.38" y="57.51" text-anchor="end" dy="0.35em" transform="rotate(-90, 150.38, 57.51)">核反应堆工程</text>
    <text x="154.16" y="57.51" text-anchor="end" dy="0.35em" transform="rotate(-90, 154.16, 57.51)">核物理</text>
    <text x="157.93" y="57.51" text-anchor="end" dy="0.35em" transform="rotate(-90, 157.93, 57.51)">法学</text>
    <text x="161.71" y="57.51" text-anchor="end" dy="0.35em" transform="rotate(-90, 161.71, 57.51)">测控技术与仪器</text>
    <text x="165.49" y="57.51" text-anchor="end" dy="0.35em" transform="rotate(-90, 165.49, 57.51)">热能与动力工程</text>
    <text x="169.27" y="57.51" text-anchor="end" dy="0.35em" transform="rotate(-90, 169.27, 57.51)">焊接技术与工程</text>
    <text x="173.04" y="57.51" text-anchor="end" dy="0.35em" transform="rotate(-90, 173.04, 57.51)">物联网工程</text>
    <text x="176.82" y="57.51" text-anchor="end" dy="0.35em" transform="rotate(-90, 176.82, 57.51)">环境工程</text>
    <text x="180.6" y="57.51" text-anchor="end" dy="0.35em" transform="rotate(-90, 180.6, 57.51)">生物信息技术</text>
    <text x="184.37" y="57.51" text-anchor="end" dy="0.35em" transform="rotate(-90, 184.37, 57.51)">生物工程</text>
    <text x="188.15" y="57.51" text-anchor="end" dy="0.35em" transform="rotate(-90, 188.15, 57.51)">生物技术</text>
    <text x="191.93" y="57.51" text-anchor="end" dy="0.35em" transform="rotate(-90, 191.93, 57.51)">电子信息工程</text>
    <text x="195.71" y="57.51" text-anchor="end" dy="0.35em" transform="rotate(-90, 195.71, 57.51)">电子信息科学与技术</text>
    <text x="199.48" y="57.51" text-anchor="end" dy="0.35em" transform="rotate(-90, 199.48, 57.51)">电子封装技术</text>
    <text x="203.26" y="57.51" text-anchor="end" dy="0.35em" transform="rotate(-90, 203.26, 57.51)">电子科学与技术</text>
    <text x="207.04" y="57.51" text-anchor="end" dy="0.35em" transform="rotate(-90, 207.04, 57.51)">电气工程及其自动化</text>
    <text x="210.82" y="57.51" text-anchor="end" dy="0.35em" transform="rotate(-90, 210.82, 57.51)">电磁场与无线技术</text>
    <text x="214.59" y="57.51" text-anchor="end" dy="0.35em" transform="rotate(-90, 214.59, 57.51)">社会学</text>
    <text x="218.37" y="57.51" text-anchor="end" dy="0.35em" transform="rotate(-90, 218.37, 57.51)">空间科学与技术</text>
    <text x="222.15" y="57.51" text-anchor="end" dy="0.35em" transform="rotate(-90, 222.15, 57.51)">经济学</text>
    <text x="225.92" y="57.51" text-anchor="end" dy="0.35em" transform="rotate(-90, 225.92, 57.51)">能源化学工程</text>
    <text x="229.7" y="57.51" text-anchor="end" dy="0.35em" transform="rotate(-90, 229.7, 57.51)">自动化</text>
    <text x="233.48" y="57.51" text-anchor="end" dy="0.35em" transform="rotate(-90, 233.48, 57.51)">艺术设计</text>
    <text x="237.26" y="57.51" text-anchor="end" dy="0.35em" transform="rotate(-90, 237.26, 57.51)">英语</text>
    <text x="241.03" y="57.51" text-anchor="end" dy="0.35em" transform="rotate(-90, 241.03, 57.51)">计算机科学与技术</text>
    <text x="244.81" y="57.51" text-anchor="end" dy="0.35em" transform="rotate(-90, 244.81, 57.51)">财务管理</text>
    <text x="248.59" y="57.51" text-anchor="end" dy="0.35em" transform="rotate(-90, 248.59, 57.51)">软件工程</text>
    <text x="252.37" y="57.51" text-anchor="end" dy="0.35em" transform="rotate(-90, 252.37, 57.51)">通信工程</text>
    <text x="256.14" y="57.51" text-anchor="end" dy="0.35em" transform="rotate(-90, 256.14, 57.51)">道路桥梁与渡河工程</text>
    <text x="259.92" y="57.51" text-anchor="end" dy="0.35em" transform="rotate(-90, 259.92, 57.51)">遥感科学与技术</text>
    <text x="263.7" y="57.51" text-anchor="end" dy="0.35em" transform="rotate(-90, 263.7, 57.51)">金融学</text>
    <text x="267.47" y="57.51" text-anchor="end" dy="0.35em" transform="rotate(-90, 267.47, 57.51)">飞行器制造工程</text>
    <text x="271.25" y="57.51" text-anchor="end" dy="0.35em" transform="rotate(-90, 271.25, 57.51)">飞行器动力工程</text>
    <text x="275.03" y="57.51" text-anchor="end" dy="0.35em" transform="rotate(-90, 275.03, 57.51)">飞行器环境与生命保障工程</text>
    <text x="278.81" y="57.51" text-anchor="end" dy="0.35em" transform="rotate(-90, 278.81, 57.51)">飞行器设计与工程</text>
    <text x="282.58" y="57.51" text-anchor="end" dy="0.35em" transform="rotate(-90, 282.58, 57.51)">食品科学与工程</text>
    <text x="286.36" y="57.51" text-anchor="end" dy="0.35em" transform="rotate(-90, 286.36, 57.51)">高分子材料与工程</text>
  </g>
  <g class="guide colorkey" id="img-7b11d22d-4">
    <g fill="#4C404B" font-size="2.82" font-family="'PT Sans','Helvetica Neue','Helvetica',sans-serif" id="img-7b11d22d-5">
      <text x="292.06" y="34.56" dy="0.35em" id="img-7b11d22d-6" class="color_M">M</text>
      <text x="292.06" y="38.19" dy="0.35em" id="img-7b11d22d-7" class="color_F">F</text>
    </g>
    <g stroke="#000000" stroke-opacity="0.000" id="img-7b11d22d-8">
      <rect x="289.25" y="33.65" width="1.81" height="1.81" id="img-7b11d22d-9" class="color_M" fill="#00BFFF"/>
      <rect x="289.25" y="37.28" width="1.81" height="1.81" id="img-7b11d22d-10" class="color_F" fill="#D4CA3A"/>
    </g>
    <g fill="#362A35" font-size="3.88" font-family="'PT Sans','Helvetica Neue','Helvetica',sans-serif" stroke="#000000" stroke-opacity="0.000" id="img-7b11d22d-11">
      <text x="289.25" y="30.74" id="img-7b11d22d-12">gender</text>
    </g>
  </g>
<g clip-path="url(#img-7b11d22d-13)">
  <g id="img-7b11d22d-14">
    <g pointer-events="visible" opacity="1" fill="#000000" fill-opacity="0.000" stroke="#000000" stroke-opacity="0.000" class="guide background" id="img-7b11d22d-15">
      <rect x="16.29" y="12.61" width="271.96" height="43.9" id="img-7b11d22d-16"/>
    </g>
    <g class="guide ygridlines xfixed" stroke-dasharray="0.5,0.5" stroke-width="0.2" stroke="#D0D0E0" id="img-7b11d22d-17">
      <path fill="none" d="M16.29,54.51 L 288.25 54.51" id="img-7b11d22d-18"/>
      <path fill="none" d="M16.29,44.53 L 288.25 44.53" id="img-7b11d22d-19"/>
      <path fill="none" d="M16.29,34.56 L 288.25 34.56" id="img-7b11d22d-20"/>
      <path fill="none" d="M16.29,24.59 L 288.25 24.59" id="img-7b11d22d-21"/>
      <path fill="none" d="M16.29,14.61 L 288.25 14.61" id="img-7b11d22d-22"/>
    </g>
    <g class="guide xgridlines yfixed" stroke-dasharray="0.5,0.5" stroke-width="0.2" stroke="#D0D0E0" id="img-7b11d22d-23">
      <path fill="none" d="M20.06,12.61 L 20.06 56.51" id="img-7b11d22d-24"/>
      <path fill="none" d="M23.84,12.61 L 23.84 56.51" id="img-7b11d22d-25"/>
      <path fill="none" d="M27.62,12.61 L 27.62 56.51" id="img-7b11d22d-26"/>
      <path fill="none" d="M31.39,12.61 L 31.39 56.51" id="img-7b11d22d-27"/>
      <path fill="none" d="M35.17,12.61 L 35.17 56.51" id="img-7b11d22d-28"/>
      <path fill="none" d="M38.95,12.61 L 38.95 56.51" id="img-7b11d22d-29"/>
      <path fill="none" d="M42.73,12.61 L 42.73 56.51" id="img-7b11d22d-30"/>
      <path fill="none" d="M46.5,12.61 L 46.5 56.51" id="img-7b11d22d-31"/>
      <path fill="none" d="M50.28,12.61 L 50.28 56.51" id="img-7b11d22d-32"/>
      <path fill="none" d="M54.06,12.61 L 54.06 56.51" id="img-7b11d22d-33"/>
      <path fill="none" d="M57.84,12.61 L 57.84 56.51" id="img-7b11d22d-34"/>
      <path fill="none" d="M61.61,12.61 L 61.61 56.51" id="img-7b11d22d-35"/>
      <path fill="none" d="M65.39,12.61 L 65.39 56.51" id="img-7b11d22d-36"/>
      <path fill="none" d="M69.17,12.61 L 69.17 56.51" id="img-7b11d22d-37"/>
      <path fill="none" d="M72.94,12.61 L 72.94 56.51" id="img-7b11d22d-38"/>
      <path fill="none" d="M76.72,12.61 L 76.72 56.51" id="img-7b11d22d-39"/>
      <path fill="none" d="M80.5,12.61 L 80.5 56.51" id="img-7b11d22d-40"/>
      <path fill="none" d="M84.28,12.61 L 84.28 56.51" id="img-7b11d22d-41"/>
      <path fill="none" d="M88.05,12.61 L 88.05 56.51" id="img-7b11d22d-42"/>
      <path fill="none" d="M91.83,12.61 L 91.83 56.51" id="img-7b11d22d-43"/>
      <path fill="none" d="M95.61,12.61 L 95.61 56.51" id="img-7b11d22d-44"/>
      <path fill="none" d="M99.39,12.61 L 99.39 56.51" id="img-7b11d22d-45"/>
      <path fill="none" d="M103.16,12.61 L 103.16 56.51" id="img-7b11d22d-46"/>
      <path fill="none" d="M106.94,12.61 L 106.94 56.51" id="img-7b11d22d-47"/>
      <path fill="none" d="M110.72,12.61 L 110.72 56.51" id="img-7b11d22d-48"/>
      <path fill="none" d="M114.49,12.61 L 114.49 56.51" id="img-7b11d22d-49"/>
      <path fill="none" d="M118.27,12.61 L 118.27 56.51" id="img-7b11d22d-50"/>
      <path fill="none" d="M122.05,12.61 L 122.05 56.51" id="img-7b11d22d-51"/>
      <path fill="none" d="M125.83,12.61 L 125.83 56.51" id="img-7b11d22d-52"/>
      <path fill="none" d="M129.6,12.61 L 129.6 56.51" id="img-7b11d22d-53"/>
      <path fill="none" d="M133.38,12.61 L 133.38 56.51" id="img-7b11d22d-54"/>
      <path fill="none" d="M137.16,12.61 L 137.16 56.51" id="img-7b11d22d-55"/>
      <path fill="none" d="M140.94,12.61 L 140.94 56.51" id="img-7b11d22d-56"/>
      <path fill="none" d="M144.71,12.61 L 144.71 56.51" id="img-7b11d22d-57"/>
      <path fill="none" d="M148.49,12.61 L 148.49 56.51" id="img-7b11d22d-58"/>
      <path fill="none" d="M152.27,12.61 L 152.27 56.51" id="img-7b11d22d-59"/>
      <path fill="none" d="M156.04,12.61 L 156.04 56.51" id="img-7b11d22d-60"/>
      <path fill="none" d="M159.82,12.61 L 159.82 56.51" id="img-7b11d22d-61"/>
      <path fill="none" d="M163.6,12.61 L 163.6 56.51" id="img-7b11d22d-62"/>
      <path fill="none" d="M167.38,12.61 L 167.38 56.51" id="img-7b11d22d-63"/>
      <path fill="none" d="M171.15,12.61 L 171.15 56.51" id="img-7b11d22d-64"/>
      <path fill="none" d="M174.93,12.61 L 174.93 56.51" id="img-7b11d22d-65"/>
      <path fill="none" d="M178.71,12.61 L 178.71 56.51" id="img-7b11d22d-66"/>
      <path fill="none" d="M182.49,12.61 L 182.49 56.51" id="img-7b11d22d-67"/>
      <path fill="none" d="M186.26,12.61 L 186.26 56.51" id="img-7b11d22d-68"/>
      <path fill="none" d="M190.04,12.61 L 190.04 56.51" id="img-7b11d22d-69"/>
      <path fill="none" d="M193.82,12.61 L 193.82 56.51" id="img-7b11d22d-70"/>
      <path fill="none" d="M197.59,12.61 L 197.59 56.51" id="img-7b11d22d-71"/>
      <path fill="none" d="M201.37,12.61 L 201.37 56.51" id="img-7b11d22d-72"/>
      <path fill="none" d="M205.15,12.61 L 205.15 56.51" id="img-7b11d22d-73"/>
      <path fill="none" d="M208.93,12.61 L 208.93 56.51" id="img-7b11d22d-74"/>
      <path fill="none" d="M212.7,12.61 L 212.7 56.51" id="img-7b11d22d-75"/>
      <path fill="none" d="M216.48,12.61 L 216.48 56.51" id="img-7b11d22d-76"/>
      <path fill="none" d="M220.26,12.61 L 220.26 56.51" id="img-7b11d22d-77"/>
      <path fill="none" d="M224.04,12.61 L 224.04 56.51" id="img-7b11d22d-78"/>
      <path fill="none" d="M227.81,12.61 L 227.81 56.51" id="img-7b11d22d-79"/>
      <path fill="none" d="M231.59,12.61 L 231.59 56.51" id="img-7b11d22d-80"/>
      <path fill="none" d="M235.37,12.61 L 235.37 56.51" id="img-7b11d22d-81"/>
      <path fill="none" d="M239.15,12.61 L 239.15 56.51" id="img-7b11d22d-82"/>
      <path fill="none" d="M242.92,12.61 L 242.92 56.51" id="img-7b11d22d-83"/>
      <path fill="none" d="M246.7,12.61 L 246.7 56.51" id="img-7b11d22d-84"/>
      <path fill="none" d="M250.48,12.61 L 250.48 56.51" id="img-7b11d22d-85"/>
      <path fill="none" d="M254.25,12.61 L 254.25 56.51" id="img-7b11d22d-86"/>
      <path fill="none" d="M258.03,12.61 L 258.03 56.51" id="img-7b11d22d-87"/>
      <path fill="none" d="M261.81,12.61 L 261.81 56.51" id="img-7b11d22d-88"/>
      <path fill="none" d="M265.59,12.61 L 265.59 56.51" id="img-7b11d22d-89"/>
      <path fill="none" d="M269.36,12.61 L 269.36 56.51" id="img-7b11d22d-90"/>
      <path fill="none" d="M273.14,12.61 L 273.14 56.51" id="img-7b11d22d-91"/>
      <path fill="none" d="M276.92,12.61 L 276.92 56.51" id="img-7b11d22d-92"/>
      <path fill="none" d="M280.7,12.61 L 280.7 56.51" id="img-7b11d22d-93"/>
      <path fill="none" d="M284.47,12.61 L 284.47 56.51" id="img-7b11d22d-94"/>
    </g>
    <g class="plotpanel" id="img-7b11d22d-95">
      <g shape-rendering="crispEdges" stroke-width="0.3" id="img-7b11d22d-96">
        <g stroke="#000000" stroke-opacity="0.000" class="geometry" id="img-7b11d22d-97">
          <rect x="23.81" y="44.19" width="3.83" height="10.32" id="img-7b11d22d-98" fill="#D4CA3A"/>
          <rect x="27.59" y="32.64" width="3.83" height="21.87" id="img-7b11d22d-99" fill="#D4CA3A"/>
          <rect x="35.15" y="49.52" width="3.83" height="4.99" id="img-7b11d22d-100" fill="#D4CA3A"/>
          <rect x="42.7" y="52.51" width="3.83" height="1.99" id="img-7b11d22d-101" fill="#D4CA3A"/>
          <rect x="50.26" y="29.57" width="3.83" height="24.94" id="img-7b11d22d-102" fill="#D4CA3A"/>
          <rect x="54.03" y="47.86" width="3.83" height="6.65" id="img-7b11d22d-103" fill="#D4CA3A"/>
          <rect x="57.81" y="42.46" width="3.83" height="12.05" id="img-7b11d22d-104" fill="#D4CA3A"/>
          <rect x="61.59" y="51.52" width="3.83" height="2.99" id="img-7b11d22d-105" fill="#D4CA3A"/>
          <rect x="65.36" y="52.73" width="3.83" height="1.78" id="img-7b11d22d-106" fill="#D4CA3A"/>
          <rect x="69.14" y="52.01" width="3.83" height="2.49" id="img-7b11d22d-107" fill="#D4CA3A"/>
          <rect x="72.92" y="51.18" width="3.83" height="3.32" id="img-7b11d22d-108" fill="#D4CA3A"/>
          <rect x="76.7" y="48.97" width="3.83" height="5.54" id="img-7b11d22d-109" fill="#D4CA3A"/>
          <rect x="84.25" y="41.21" width="3.83" height="13.3" id="img-7b11d22d-110" fill="#D4CA3A"/>
          <rect x="88.03" y="48.69" width="3.83" height="5.82" id="img-7b11d22d-111" fill="#D4CA3A"/>
          <rect x="91.81" y="52.01" width="3.83" height="2.49" id="img-7b11d22d-112" fill="#D4CA3A"/>
          <rect x="95.58" y="49.52" width="3.83" height="4.99" id="img-7b11d22d-113" fill="#D4CA3A"/>
          <rect x="99.36" y="51.79" width="3.83" height="2.72" id="img-7b11d22d-114" fill="#D4CA3A"/>
          <rect x="103.14" y="44.53" width="3.83" height="9.97" id="img-7b11d22d-115" fill="#D4CA3A"/>
          <rect x="106.91" y="51.18" width="3.83" height="3.32" id="img-7b11d22d-116" fill="#D4CA3A"/>
          <rect x="110.69" y="54.18" width="3.83" height="0.33" id="img-7b11d22d-117" fill="#D4CA3A"/>
          <rect x="114.47" y="49.52" width="3.83" height="4.99" id="img-7b11d22d-118" fill="#D4CA3A"/>
          <rect x="122.02" y="31.9" width="3.83" height="22.61" id="img-7b11d22d-119" fill="#D4CA3A"/>
          <rect x="125.8" y="51.18" width="3.83" height="3.32" id="img-7b11d22d-120" fill="#D4CA3A"/>
          <rect x="129.58" y="49.52" width="3.83" height="4.99" id="img-7b11d22d-121" fill="#D4CA3A"/>
          <rect x="133.36" y="45.96" width="3.83" height="8.55" id="img-7b11d22d-122" fill="#D4CA3A"/>
          <rect x="137.13" y="48.27" width="3.83" height="6.23" id="img-7b11d22d-123" fill="#D4CA3A"/>
          <rect x="140.91" y="53.08" width="3.83" height="1.42" id="img-7b11d22d-124" fill="#D4CA3A"/>
          <rect x="144.69" y="51.3" width="3.83" height="3.21" id="img-7b11d22d-125" fill="#D4CA3A"/>
          <rect x="156.02" y="51.85" width="3.83" height="2.66" id="img-7b11d22d-126" fill="#D4CA3A"/>
          <rect x="159.8" y="45.93" width="3.83" height="8.58" id="img-7b11d22d-127" fill="#D4CA3A"/>
          <rect x="163.57" y="28.39" width="3.83" height="26.12" id="img-7b11d22d-128" fill="#D4CA3A"/>
          <rect x="167.35" y="51.18" width="3.83" height="3.32" id="img-7b11d22d-129" fill="#D4CA3A"/>
          <rect x="171.13" y="39.55" width="3.83" height="14.96" id="img-7b11d22d-130" fill="#D4CA3A"/>
          <rect x="174.91" y="53.68" width="3.83" height="0.83" id="img-7b11d22d-131" fill="#D4CA3A"/>
          <rect x="182.46" y="48.52" width="3.83" height="5.98" id="img-7b11d22d-132" fill="#D4CA3A"/>
          <rect x="190.02" y="43.54" width="3.83" height="10.97" id="img-7b11d22d-133" fill="#D4CA3A"/>
          <rect x="193.79" y="50.35" width="3.83" height="4.16" id="img-7b11d22d-134" fill="#D4CA3A"/>
          <rect x="197.57" y="38.4" width="3.83" height="16.11" id="img-7b11d22d-135" fill="#D4CA3A"/>
          <rect x="201.35" y="46.67" width="3.83" height="7.84" id="img-7b11d22d-136" fill="#D4CA3A"/>
          <rect x="205.12" y="42.95" width="3.83" height="11.56" id="img-7b11d22d-137" fill="#D4CA3A"/>
          <rect x="208.9" y="51.18" width="3.83" height="3.32" id="img-7b11d22d-138" fill="#D4CA3A"/>
          <rect x="224.01" y="37.88" width="3.83" height="16.62" id="img-7b11d22d-139" fill="#D4CA3A"/>
          <rect x="227.79" y="40.35" width="3.83" height="14.16" id="img-7b11d22d-140" fill="#D4CA3A"/>
          <rect x="231.57" y="39.55" width="3.83" height="14.96" id="img-7b11d22d-141" fill="#D4CA3A"/>
          <rect x="235.34" y="26.93" width="3.83" height="27.58" id="img-7b11d22d-142" fill="#D4CA3A"/>
          <rect x="239.12" y="50.91" width="3.83" height="3.6" id="img-7b11d22d-143" fill="#D4CA3A"/>
          <rect x="242.9" y="47.53" width="3.83" height="6.98" id="img-7b11d22d-144" fill="#D4CA3A"/>
          <rect x="246.67" y="53.88" width="3.83" height="0.62" id="img-7b11d22d-145" fill="#D4CA3A"/>
          <rect x="250.45" y="44.25" width="3.83" height="10.26" id="img-7b11d22d-146" fill="#D4CA3A"/>
          <rect x="254.23" y="52.51" width="3.83" height="1.99" id="img-7b11d22d-147" fill="#D4CA3A"/>
          <rect x="261.78" y="49.3" width="3.83" height="5.2" id="img-7b11d22d-148" fill="#D4CA3A"/>
          <rect x="265.56" y="39.55" width="3.83" height="14.96" id="img-7b11d22d-149" fill="#D4CA3A"/>
          <rect x="269.34" y="44.53" width="3.83" height="9.97" id="img-7b11d22d-150" fill="#D4CA3A"/>
          <rect x="276.89" y="51.44" width="3.83" height="3.07" id="img-7b11d22d-151" fill="#D4CA3A"/>
          <rect x="280.67" y="47.86" width="3.83" height="6.65" id="img-7b11d22d-152" fill="#D4CA3A"/>
          <rect x="284.45" y="51.66" width="3.83" height="2.85" id="img-7b11d22d-153" fill="#D4CA3A"/>
          <rect x="16.26" y="50.23" width="3.83" height="4.27" id="img-7b11d22d-154" fill="#00BFFF"/>
          <rect x="20.04" y="53.88" width="3.83" height="0.62" id="img-7b11d22d-155" fill="#00BFFF"/>
          <rect x="23.81" y="43.08" width="3.83" height="1.11" id="img-7b11d22d-156" fill="#00BFFF"/>
          <rect x="27.59" y="27.92" width="3.83" height="4.72" id="img-7b11d22d-157" fill="#00BFFF"/>
          <rect x="31.37" y="50.35" width="3.83" height="4.16" id="img-7b11d22d-158" fill="#00BFFF"/>
          <rect x="35.15" y="38.86" width="3.83" height="10.66" id="img-7b11d22d-159" fill="#00BFFF"/>
          <rect x="38.92" y="53.08" width="3.83" height="1.42" id="img-7b11d22d-160" fill="#00BFFF"/>
          <rect x="46.48" y="48.07" width="3.83" height="6.43" id="img-7b11d22d-161" fill="#00BFFF"/>
          <rect x="50.26" y="13.46" width="3.83" height="16.11" id="img-7b11d22d-162" fill="#00BFFF"/>
          <rect x="54.03" y="41.75" width="3.83" height="6.11" id="img-7b11d22d-163" fill="#00BFFF"/>
          <rect x="57.81" y="41.9" width="3.83" height="0.55" id="img-7b11d22d-164" fill="#00BFFF"/>
          <rect x="61.59" y="46.82" width="3.83" height="4.7" id="img-7b11d22d-165" fill="#00BFFF"/>
          <rect x="65.36" y="51.9" width="3.83" height="0.83" id="img-7b11d22d-166" fill="#00BFFF"/>
          <rect x="69.14" y="42.66" width="3.83" height="9.35" id="img-7b11d22d-167" fill="#00BFFF"/>
          <rect x="72.92" y="32.14" width="3.83" height="19.04" id="img-7b11d22d-168" fill="#00BFFF"/>
          <rect x="76.7" y="35.37" width="3.83" height="13.6" id="img-7b11d22d-169" fill="#00BFFF"/>
          <rect x="80.47" y="46.53" width="3.83" height="7.98" id="img-7b11d22d-170" fill="#00BFFF"/>
          <rect x="84.25" y="26.63" width="3.83" height="14.58" id="img-7b11d22d-171" fill="#00BFFF"/>
          <rect x="88.03" y="47.54" width="3.83" height="1.15" id="img-7b11d22d-172" fill="#00BFFF"/>
          <rect x="91.81" y="49.52" width="3.83" height="2.49" id="img-7b11d22d-173" fill="#00BFFF"/>
          <rect x="103.14" y="26.8" width="3.83" height="17.73" id="img-7b11d22d-174" fill="#00BFFF"/>
          <rect x="106.91" y="48.5" width="3.83" height="2.69" id="img-7b11d22d-175" fill="#00BFFF"/>
          <rect x="110.69" y="53.72" width="3.83" height="0.45" id="img-7b11d22d-176" fill="#00BFFF"/>
          <rect x="114.47" y="45.82" width="3.83" height="3.7" id="img-7b11d22d-177" fill="#00BFFF"/>
          <rect x="118.25" y="45.61" width="3.83" height="8.9" id="img-7b11d22d-178" fill="#00BFFF"/>
          <rect x="129.58" y="41.96" width="3.83" height="7.56" id="img-7b11d22d-179" fill="#00BFFF"/>
          <rect x="133.36" y="42.73" width="3.83" height="3.23" id="img-7b11d22d-180" fill="#00BFFF"/>
          <rect x="137.13" y="34.69" width="3.83" height="13.59" id="img-7b11d22d-181" fill="#00BFFF"/>
          <rect x="140.91" y="52.46" width="3.83" height="0.62" id="img-7b11d22d-182" fill="#00BFFF"/>
          <rect x="144.69" y="45.15" width="3.83" height="6.16" id="img-7b11d22d-183" fill="#00BFFF"/>
          <rect x="148.47" y="53.46" width="3.83" height="1.05" id="img-7b11d22d-184" fill="#00BFFF"/>
          <rect x="152.24" y="52.01" width="3.83" height="2.49" id="img-7b11d22d-185" fill="#00BFFF"/>
          <rect x="156.02" y="20.82" width="3.83" height="31.03" id="img-7b11d22d-186" fill="#00BFFF"/>
          <rect x="159.8" y="38.66" width="3.83" height="7.26" id="img-7b11d22d-187" fill="#00BFFF"/>
          <rect x="163.57" y="17.26" width="3.83" height="11.13" id="img-7b11d22d-188" fill="#00BFFF"/>
          <rect x="167.35" y="38.02" width="3.83" height="13.16" id="img-7b11d22d-189" fill="#00BFFF"/>
          <rect x="178.68" y="50.08" width="3.83" height="4.43" id="img-7b11d22d-190" fill="#00BFFF"/>
          <rect x="182.46" y="43.99" width="3.83" height="4.53" id="img-7b11d22d-191" fill="#00BFFF"/>
          <rect x="186.24" y="50.52" width="3.83" height="3.99" id="img-7b11d22d-192" fill="#00BFFF"/>
          <rect x="190.02" y="41.78" width="3.83" height="1.76" id="img-7b11d22d-193" fill="#00BFFF"/>
          <rect x="193.79" y="36.79" width="3.83" height="13.56" id="img-7b11d22d-194" fill="#00BFFF"/>
          <rect x="197.57" y="35.9" width="3.83" height="2.49" id="img-7b11d22d-195" fill="#00BFFF"/>
          <rect x="201.35" y="40.14" width="3.83" height="6.53" id="img-7b11d22d-196" fill="#00BFFF"/>
          <rect x="205.12" y="33.54" width="3.83" height="9.41" id="img-7b11d22d-197" fill="#00BFFF"/>
          <rect x="208.9" y="41.21" width="3.83" height="9.97" id="img-7b11d22d-198" fill="#00BFFF"/>
          <rect x="212.68" y="52.51" width="3.83" height="1.99" id="img-7b11d22d-199" fill="#00BFFF"/>
          <rect x="216.46" y="52.37" width="3.83" height="2.14" id="img-7b11d22d-200" fill="#00BFFF"/>
          <rect x="220.23" y="51.18" width="3.83" height="3.32" id="img-7b11d22d-201" fill="#00BFFF"/>
          <rect x="224.01" y="34.82" width="3.83" height="3.07" id="img-7b11d22d-202" fill="#00BFFF"/>
          <rect x="227.79" y="34.35" width="3.83" height="6" id="img-7b11d22d-203" fill="#00BFFF"/>
          <rect x="231.57" y="38.05" width="3.83" height="1.5" id="img-7b11d22d-204" fill="#00BFFF"/>
          <rect x="235.34" y="21.95" width="3.83" height="4.99" id="img-7b11d22d-205" fill="#00BFFF"/>
          <rect x="239.12" y="45.28" width="3.83" height="5.62" id="img-7b11d22d-206" fill="#00BFFF"/>
          <rect x="242.9" y="46.62" width="3.83" height="0.91" id="img-7b11d22d-207" fill="#00BFFF"/>
          <rect x="246.67" y="50.42" width="3.83" height="3.46" id="img-7b11d22d-208" fill="#00BFFF"/>
          <rect x="250.45" y="33.34" width="3.83" height="10.91" id="img-7b11d22d-209" fill="#00BFFF"/>
          <rect x="254.23" y="52.1" width="3.83" height="0.41" id="img-7b11d22d-210" fill="#00BFFF"/>
          <rect x="258.01" y="53.08" width="3.83" height="1.42" id="img-7b11d22d-211" fill="#00BFFF"/>
          <rect x="261.78" y="34.9" width="3.83" height="14.41" id="img-7b11d22d-212" fill="#00BFFF"/>
          <rect x="265.56" y="23.71" width="3.83" height="15.84" id="img-7b11d22d-213" fill="#00BFFF"/>
          <rect x="269.34" y="34.56" width="3.83" height="9.97" id="img-7b11d22d-214" fill="#00BFFF"/>
          <rect x="273.12" y="50.88" width="3.83" height="3.63" id="img-7b11d22d-215" fill="#00BFFF"/>
          <rect x="276.89" y="42.16" width="3.83" height="9.28" id="img-7b11d22d-216" fill="#00BFFF"/>
          <rect x="280.67" y="46.75" width="3.83" height="1.11" id="img-7b11d22d-217" fill="#00BFFF"/>
          <rect x="284.45" y="45.25" width="3.83" height="6.41" id="img-7b11d22d-218" fill="#00BFFF"/>
        </g>
      </g>
    </g>
  </g>
</g>
  <g class="guide ylabels" font-size="2.82" font-family="'PT Sans Caption','Helvetica Neue','Helvetica',sans-serif" fill="#6C606B" id="img-7b11d22d-219">
    <text x="15.28" y="54.51" text-anchor="end" dy="0.35em" id="img-7b11d22d-220">0</text>
    <text x="15.28" y="44.53" text-anchor="end" dy="0.35em" id="img-7b11d22d-221">1</text>
    <text x="15.28" y="34.56" text-anchor="end" dy="0.35em" id="img-7b11d22d-222">2</text>
    <text x="15.28" y="24.59" text-anchor="end" dy="0.35em" id="img-7b11d22d-223">3</text>
    <text x="15.28" y="14.61" text-anchor="end" dy="0.35em" id="img-7b11d22d-224">4</text>
  </g>
  <g font-size="3.88" font-family="'PT Sans','Helvetica Neue','Helvetica',sans-serif" fill="#564A55" stroke="#000000" stroke-opacity="0.000" id="img-7b11d22d-225">
    <text x="8.81" y="32.56" text-anchor="middle" dy="0.35em" transform="rotate(-90, 8.81, 34.56)" id="img-7b11d22d-226">ratio_sum</text>
  </g>
  <g font-size="3.88" font-family="'PT Sans','Helvetica Neue','Helvetica',sans-serif" fill="#564A55" stroke="#000000" stroke-opacity="0.000" id="img-7b11d22d-227">
    <text x="152.27" y="10.61" text-anchor="middle" id="img-7b11d22d-228">各专业健身比例 (已平衡各专业性别)</text>
  </g>
</g>
<defs>
  <clipPath id="img-7b11d22d-13">
  <path d="M16.29,12.61 L 288.25 12.61 288.25 56.51 16.29 56.51" />
</clipPath>
</defs>
</svg>
