<?xml version="1.0" encoding="UTF-8"?>
<svg xmlns="http://www.w3.org/2000/svg"
     xmlns:xlink="http://www.w3.org/1999/xlink"
     xmlns:gadfly="http://www.gadflyjl.org/ns"
     version="1.2"
     width="152.4mm" height="101.6mm" viewBox="0 0 152.4 101.6"
     stroke="none"
     fill="#000000"
     stroke-width="0.3"
     font-size="3.88"
>
<g class="plotroot xscalable yscalable" id="img-39ceaab4-1">
  <g font-size="3.88" font-family="'PT Sans','Helvetica Neue','Helvetica',sans-serif" fill="#564A55" stroke="#000000" stroke-opacity="0.000" id="img-39ceaab4-2">
    <text x="80.01" y="89.99" text-anchor="middle" dy="0.6em">就餐时间</text>
  </g>
<g clip-path="url(#img-39ceaab4-3)">
  <g id="img-39ceaab4-4">
    <g class="plotpanel" id="img-39ceaab4-5">
      <g font-size="3.88" font-family="'PT Sans','Helvetica Neue','Helvetica',sans-serif" fill="#564A55" stroke="#000000" stroke-opacity="0.000" id="img-39ceaab4-6">
        <text x="127.29" y="80.38" text-anchor="middle" dy="0.6em">dinner</text>
      </g>
      <g font-size="3.88" font-family="'PT Sans','Helvetica Neue','Helvetica',sans-serif" fill="#564A55" stroke="#000000" stroke-opacity="0.000" id="img-39ceaab4-7">
        <text x="87.06" y="80.38" text-anchor="middle" dy="0.6em">lunch</text>
      </g>
      <g font-size="3.88" font-family="'PT Sans','Helvetica Neue','Helvetica',sans-serif" fill="#564A55" stroke="#000000" stroke-opacity="0.000" id="img-39ceaab4-8">
        <text x="45.84" y="80.38" text-anchor="middle" dy="0.6em">breakfast</text>
      </g>
      <g class="guide xlabels" font-size="2.82" font-family="'PT Sans Caption','Helvetica Neue','Helvetica',sans-serif" fill="#6C606B" id="img-39ceaab4-9">
        <text x="111.17" y="68.91" text-anchor="end" dy="0.35em" transform="rotate(-90, 111.17, 68.91)">15:00</text>
        <text x="117.62" y="68.91" text-anchor="end" dy="0.35em" transform="rotate(-90, 117.62, 68.91)">16:15</text>
        <text x="124.06" y="68.91" text-anchor="end" dy="0.35em" transform="rotate(-90, 124.06, 68.91)">17:30</text>
        <text x="130.51" y="68.91" text-anchor="end" dy="0.35em" transform="rotate(-90, 130.51, 68.91)">18:45</text>
        <text x="136.95" y="68.91" text-anchor="end" dy="0.35em" transform="rotate(-90, 136.95, 68.91)">20:00</text>
        <text x="143.4" y="68.91" text-anchor="end" dy="0.35em" transform="rotate(-90, 143.4, 68.91)">21:15</text>
      </g>
      <g class="guide xlabels" font-size="2.82" font-family="'PT Sans Caption','Helvetica Neue','Helvetica',sans-serif" fill="#6C606B" id="img-39ceaab4-10">
        <text x="70.95" y="68.91" text-anchor="end" dy="0.35em" transform="rotate(-90, 70.95, 68.91)">10:00</text>
        <text x="79.01" y="68.91" text-anchor="end" dy="0.35em" transform="rotate(-90, 79.01, 68.91)">11:15</text>
        <text x="87.06" y="68.91" text-anchor="end" dy="0.35em" transform="rotate(-90, 87.06, 68.91)">12:30</text>
        <text x="95.12" y="68.91" text-anchor="end" dy="0.35em" transform="rotate(-90, 95.12, 68.91)">13:45</text>
        <text x="103.17" y="68.91" text-anchor="end" dy="0.35em" transform="rotate(-90, 103.17, 68.91)">15:00</text>
      </g>
      <g class="guide xlabels" font-size="2.82" font-family="'PT Sans Caption','Helvetica Neue','Helvetica',sans-serif" fill="#6C606B" id="img-39ceaab4-11">
        <text x="28.73" y="68.91" text-anchor="end" dy="0.35em" transform="rotate(-90, 28.73, 68.91)">5:00</text>
        <text x="37.28" y="68.91" text-anchor="end" dy="0.35em" transform="rotate(-90, 37.28, 68.91)">6:15</text>
        <text x="45.84" y="68.91" text-anchor="end" dy="0.35em" transform="rotate(-90, 45.84, 68.91)">7:30</text>
        <text x="54.39" y="68.91" text-anchor="end" dy="0.35em" transform="rotate(-90, 54.39, 68.91)">8:45</text>
        <text x="62.95" y="68.91" text-anchor="end" dy="0.35em" transform="rotate(-90, 62.95, 68.91)">10:00</text>
      </g>
<g clip-path="url(#img-39ceaab4-12)">
      <g id="img-39ceaab4-13">
        <g pointer-events="visible" opacity="1" fill="#000000" fill-opacity="0.000" stroke="#000000" stroke-opacity="0.000" class="guide background" id="img-39ceaab4-14">
          <rect x="109.17" y="14.61" width="36.22" height="53.3"/>
        </g>
        <g class="guide ygridlines xfixed" stroke-dasharray="0.5,0.5" stroke-width="0.2" stroke="#D0D0E0" id="img-39ceaab4-15">
          <path fill="none" d="M109.17,65.91 L 145.4 65.91"/>
          <path fill="none" d="M109.17,53.59 L 145.4 53.59"/>
          <path fill="none" d="M109.17,41.26 L 145.4 41.26"/>
          <path fill="none" d="M109.17,28.94 L 145.4 28.94"/>
          <path fill="none" d="M109.17,16.61 L 145.4 16.61"/>
        </g>
        <g class="guide xgridlines yfixed" stroke-dasharray="0.5,0.5" stroke-width="0.2" stroke="#D0D0E0" id="img-39ceaab4-16">
          <path fill="none" d="M111.17,14.61 L 111.17 67.91"/>
          <path fill="none" d="M117.62,14.61 L 117.62 67.91"/>
          <path fill="none" d="M124.06,14.61 L 124.06 67.91"/>
          <path fill="none" d="M130.51,14.61 L 130.51 67.91"/>
          <path fill="none" d="M136.95,14.61 L 136.95 67.91"/>
          <path fill="none" d="M143.4,14.61 L 143.4 67.91"/>
        </g>
        <g class="plotpanel" id="img-39ceaab4-17">
          <g stroke-width="0.3" fill="#000000" fill-opacity="0.000" class="geometry" stroke-dasharray="none" stroke="#00BFFF" id="img-39ceaab4-18">
            <path fill="none" d="M116.33,59.6 L 117.62 59.52 118.91 55.51 120.2 48.69 121.49 32.58 122.78 27.21 124.06 35.7 125.35 45.14 126.64 51.1 127.93 56.02 129.22 58.12 130.51 59.79 131.8 60.48 133.09 60.92 134.38 61.35 135.67 61.63 136.95 61.66 138.24 61.55 139.53 61.98 140.82 63.37"/>
          </g>
        </g>
      </g>
</g>
<g clip-path="url(#img-39ceaab4-19)">
      <g id="img-39ceaab4-20">
        <g pointer-events="visible" opacity="1" fill="#000000" fill-opacity="0.000" stroke="#000000" stroke-opacity="0.000" class="guide background" id="img-39ceaab4-21">
          <rect x="68.95" y="14.61" width="36.22" height="53.3"/>
        </g>
        <g class="guide ygridlines xfixed" stroke-dasharray="0.5,0.5" stroke-width="0.2" stroke="#D0D0E0" id="img-39ceaab4-22">
          <path fill="none" d="M68.95,65.91 L 105.17 65.91"/>
          <path fill="none" d="M68.95,53.59 L 105.17 53.59"/>
          <path fill="none" d="M68.95,41.26 L 105.17 41.26"/>
          <path fill="none" d="M68.95,28.94 L 105.17 28.94"/>
          <path fill="none" d="M68.95,16.61 L 105.17 16.61"/>
        </g>
        <g class="guide xgridlines yfixed" stroke-dasharray="0.5,0.5" stroke-width="0.2" stroke="#D0D0E0" id="img-39ceaab4-23">
          <path fill="none" d="M70.95,14.61 L 70.95 67.91"/>
          <path fill="none" d="M79.01,14.61 L 79.01 67.91"/>
          <path fill="none" d="M87.06,14.61 L 87.06 67.91"/>
          <path fill="none" d="M95.12,14.61 L 95.12 67.91"/>
          <path fill="none" d="M103.17,14.61 L 103.17 67.91"/>
        </g>
        <g class="plotpanel" id="img-39ceaab4-24">
          <g stroke-width="0.3" fill="#000000" fill-opacity="0.000" class="geometry" stroke-dasharray="none" stroke="#00BFFF" id="img-39ceaab4-25">
            <path fill="none" d="M70.95,61.29 L 72.56 61.8 74.17 59.66 75.78 52.88 77.39 34.23 79.01 19.8 80.62 21.22 82.23 34.76 83.84 47.84 85.45 55.02 87.06 58.61 88.67 60.58 90.28 61.63 91.9 62.21 93.51 62.76 95.12 63.24 96.73 63.42 98.34 63.52 99.95 63.84 101.56 63.82"/>
          </g>
        </g>
      </g>
</g>
<g clip-path="url(#img-39ceaab4-26)">
      <g id="img-39ceaab4-27">
        <g pointer-events="visible" opacity="1" fill="#000000" fill-opacity="0.000" stroke="#000000" stroke-opacity="0.000" class="guide background" id="img-39ceaab4-28">
          <rect x="26.73" y="14.61" width="38.22" height="53.3"/>
        </g>
        <g class="guide ygridlines xfixed" stroke-dasharray="0.5,0.5" stroke-width="0.2" stroke="#D0D0E0" id="img-39ceaab4-29">
          <path fill="none" d="M26.73,65.91 L 64.95 65.91"/>
          <path fill="none" d="M26.73,53.59 L 64.95 53.59"/>
          <path fill="none" d="M26.73,41.26 L 64.95 41.26"/>
          <path fill="none" d="M26.73,28.94 L 64.95 28.94"/>
          <path fill="none" d="M26.73,16.61 L 64.95 16.61"/>
        </g>
        <g class="guide xgridlines yfixed" stroke-dasharray="0.5,0.5" stroke-width="0.2" stroke="#D0D0E0" id="img-39ceaab4-30">
          <path fill="none" d="M28.73,14.61 L 28.73 67.91"/>
          <path fill="none" d="M37.28,14.61 L 37.28 67.91"/>
          <path fill="none" d="M45.84,14.61 L 45.84 67.91"/>
          <path fill="none" d="M54.39,14.61 L 54.39 67.91"/>
          <path fill="none" d="M62.95,14.61 L 62.95 67.91"/>
        </g>
        <g class="plotpanel" id="img-39ceaab4-31">
          <g stroke-width="0.3" fill="#000000" fill-opacity="0.000" class="geometry" stroke-dasharray="none" stroke="#00BFFF" id="img-39ceaab4-32">
            <path fill="none" d="M35.57,65.53 L 37.28 65.15 38.99 64.71 40.7 63.12 42.42 59.59 44.13 57.49 45.84 49.26 47.55 49.9 49.26 50.08 50.97 50.46 52.68 51.83 54.39 55.43 56.1 58.34 57.82 60.16 59.53 60.77 61.24 61.25"/>
          </g>
        </g>
      </g>
</g>
      <g class="guide ylabels" font-size="2.82" font-family="'PT Sans Caption','Helvetica Neue','Helvetica',sans-serif" fill="#6C606B" id="img-39ceaab4-33">
        <text x="25.73" y="65.91" text-anchor="end" dy="0.35em">0</text>
        <text x="25.73" y="53.59" text-anchor="end" dy="0.35em">5.0×10³</text>
        <text x="25.73" y="41.26" text-anchor="end" dy="0.35em">1.0×10⁴</text>
        <text x="25.73" y="28.94" text-anchor="end" dy="0.35em">1.5×10⁴</text>
        <text x="25.73" y="16.61" text-anchor="end" dy="0.35em">2.0×10⁴</text>
      </g>
    </g>
  </g>
</g>
  <g font-size="3.88" font-family="'PT Sans','Helvetica Neue','Helvetica',sans-serif" fill="#564A55" stroke="#000000" stroke-opacity="0.000" id="img-39ceaab4-34">
    <text x="8.81" y="47.8" text-anchor="middle" dy="0.35em" transform="rotate(-90, 8.81, 49.8)">次数</text>
  </g>
  <g font-size="3.88" font-family="'PT Sans','Helvetica Neue','Helvetica',sans-serif" fill="#564A55" stroke="#000000" stroke-opacity="0.000" id="img-39ceaab4-35">
    <text x="80.01" y="10.61" text-anchor="middle">就餐时段分布</text>
  </g>
</g>
<defs>
  <clipPath id="img-39ceaab4-3">
  <path d="M12.61,12.61 L 147.4 12.61 147.4 86.99 12.61 86.99" />
</clipPath>
  <clipPath id="img-39ceaab4-12">
  <path d="M109.17,14.61 L 145.4 14.61 145.4 67.91 109.17 67.91" />
</clipPath>
  <clipPath id="img-39ceaab4-19">
  <path d="M68.95,14.61 L 105.17 14.61 105.17 67.91 68.95 67.91" />
</clipPath>
  <clipPath id="img-39ceaab4-26">
  <path d="M26.73,14.61 L 64.95 14.61 64.95 67.91 26.73 67.91" />
</clipPath>
</defs>
</svg>
