<?xml version="1.0" encoding="UTF-8"?>
<svg xmlns="http://www.w3.org/2000/svg"
     xmlns:xlink="http://www.w3.org/1999/xlink"
     xmlns:gadfly="http://www.gadflyjl.org/ns"
     version="1.2"
     width="304.8mm" height="101.6mm" viewBox="0 0 304.8 101.6"
     stroke="none"
     fill="#000000"
     stroke-width="0.3"
     font-size="3.88"
>
<g class="plotroot yscalable" id="img-a57696b2-1">
  <g font-size="3.88" font-family="'PT Sans','Helvetica Neue','Helvetica',sans-serif" fill="#564A55" stroke="#000000" stroke-opacity="0.000" id="img-a57696b2-2">
    <text x="159.72" y="89.99" text-anchor="middle" dy="0.6em">major</text>
  </g>
  <g class="guide xlabels" font-size="2.82" font-family="'PT Sans Caption','Helvetica Neue','Helvetica',sans-serif" fill="#6C606B" id="img-a57696b2-3">
    <text x="21.47" y="57.51" text-anchor="end" dy="0.35em" transform="rotate(-90, 21.47, 57.51)">交通信息与控制工程</text>
    <text x="25.16" y="57.51" text-anchor="end" dy="0.35em" transform="rotate(-90, 25.16, 57.51)">交通工程</text>
    <text x="28.85" y="57.51" text-anchor="end" dy="0.35em" transform="rotate(-90, 28.85, 57.51)">会计学</text>
    <text x="32.53" y="57.51" text-anchor="end" dy="0.35em" transform="rotate(-90, 32.53, 57.51)">俄语</text>
    <text x="36.22" y="57.51" text-anchor="end" dy="0.35em" transform="rotate(-90, 36.22, 57.51)">信息与计算科学</text>
    <text x="39.91" y="57.51" text-anchor="end" dy="0.35em" transform="rotate(-90, 39.91, 57.51)">信息安全</text>
    <text x="43.59" y="57.51" text-anchor="end" dy="0.35em" transform="rotate(-90, 43.59, 57.51)">信息对抗技术</text>
    <text x="47.28" y="57.51" text-anchor="end" dy="0.35em" transform="rotate(-90, 47.28, 57.51)">信息管理与信息系统</text>
    <text x="50.97" y="57.51" text-anchor="end" dy="0.35em" transform="rotate(-90, 50.97, 57.51)">光信息科学与技术</text>
    <text x="54.65" y="57.51" text-anchor="end" dy="0.35em" transform="rotate(-90, 54.65, 57.51)">光电子材料与器件</text>
    <text x="58.34" y="57.51" text-anchor="end" dy="0.35em" transform="rotate(-90, 58.34, 57.51)">化学工程与工艺</text>
    <text x="62.03" y="57.51" text-anchor="end" dy="0.35em" transform="rotate(-90, 62.03, 57.51)">国际经济与贸易</text>
    <text x="65.71" y="57.51" text-anchor="end" dy="0.35em" transform="rotate(-90, 65.71, 57.51)">土木工程</text>
    <text x="69.4" y="57.51" text-anchor="end" dy="0.35em" transform="rotate(-90, 69.4, 57.51)">城市规划</text>
    <text x="73.08" y="57.51" text-anchor="end" dy="0.35em" transform="rotate(-90, 73.08, 57.51)">复合材料与工程</text>
    <text x="76.77" y="57.51" text-anchor="end" dy="0.35em" transform="rotate(-90, 76.77, 57.51)">工业工程</text>
    <text x="80.46" y="57.51" text-anchor="end" dy="0.35em" transform="rotate(-90, 80.46, 57.51)">工业设计</text>
    <text x="84.14" y="57.51" text-anchor="end" dy="0.35em" transform="rotate(-90, 84.14, 57.51)">工商管理</text>
    <text x="87.83" y="57.51" text-anchor="end" dy="0.35em" transform="rotate(-90, 87.83, 57.51)">工程力学</text>
    <text x="91.52" y="57.51" text-anchor="end" dy="0.35em" transform="rotate(-90, 91.52, 57.51)">工程管理</text>
    <text x="95.2" y="57.51" text-anchor="end" dy="0.35em" transform="rotate(-90, 95.2, 57.51)">市场营销</text>
    <text x="98.89" y="57.51" text-anchor="end" dy="0.35em" transform="rotate(-90, 98.89, 57.51)">广告学</text>
    <text x="102.58" y="57.51" text-anchor="end" dy="0.35em" transform="rotate(-90, 102.58, 57.51)">广播电视编导</text>
    <text x="106.26" y="57.51" text-anchor="end" dy="0.35em" transform="rotate(-90, 106.26, 57.51)">应用化学</text>
    <text x="109.95" y="57.51" text-anchor="end" dy="0.35em" transform="rotate(-90, 109.95, 57.51)">应用物理学</text>
    <text x="113.64" y="57.51" text-anchor="end" dy="0.35em" transform="rotate(-90, 113.64, 57.51)">建筑学</text>
    <text x="117.32" y="57.51" text-anchor="end" dy="0.35em" transform="rotate(-90, 117.32, 57.51)">建筑环境与设备工程</text>
    <text x="121.01" y="57.51" text-anchor="end" dy="0.35em" transform="rotate(-90, 121.01, 57.51)">探测制导与控制技术</text>
    <text x="124.69" y="57.51" text-anchor="end" dy="0.35em" transform="rotate(-90, 124.69, 57.51)">数学与应用数学</text>
    <text x="128.38" y="57.51" text-anchor="end" dy="0.35em" transform="rotate(-90, 128.38, 57.51)">日语</text>
    <text x="132.07" y="57.51" text-anchor="end" dy="0.35em" transform="rotate(-90, 132.07, 57.51)">景观学</text>
    <text x="135.75" y="57.51" text-anchor="end" dy="0.35em" transform="rotate(-90, 135.75, 57.51)">机械设计制造及其自动化</text>
    <text x="139.44" y="57.51" text-anchor="end" dy="0.35em" transform="rotate(-90, 139.44, 57.51)">材料化学</text>
    <text x="143.13" y="57.51" text-anchor="end" dy="0.35em" transform="rotate(-90, 143.13, 57.51)">材料成型及控制工程</text>
    <text x="146.81" y="57.51" text-anchor="end" dy="0.35em" transform="rotate(-90, 146.81, 57.51)">材料物理</text>
    <text x="150.5" y="57.51" text-anchor="end" dy="0.35em" transform="rotate(-90, 150.5, 57.51)">材料科学与工程</text>
    <text x="154.19" y="57.51" text-anchor="end" dy="0.35em" transform="rotate(-90, 154.19, 57.51)">核化工与核燃料工程</text>
    <text x="157.87" y="57.51" text-anchor="end" dy="0.35em" transform="rotate(-90, 157.87, 57.51)">核反应堆工程</text>
    <text x="161.56" y="57.51" text-anchor="end" dy="0.35em" transform="rotate(-90, 161.56, 57.51)">核物理</text>
    <text x="165.25" y="57.51" text-anchor="end" dy="0.35em" transform="rotate(-90, 165.25, 57.51)">法学</text>
    <text x="168.93" y="57.51" text-anchor="end" dy="0.35em" transform="rotate(-90, 168.93, 57.51)">测控技术与仪器</text>
    <text x="172.62" y="57.51" text-anchor="end" dy="0.35em" transform="rotate(-90, 172.62, 57.51)">热能与动力工程</text>
    <text x="176.3" y="57.51" text-anchor="end" dy="0.35em" transform="rotate(-90, 176.3, 57.51)">焊接技术与工程</text>
    <text x="179.99" y="57.51" text-anchor="end" dy="0.35em" transform="rotate(-90, 179.99, 57.51)">物联网工程</text>
    <text x="183.68" y="57.51" text-anchor="end" dy="0.35em" transform="rotate(-90, 183.68, 57.51)">环境工程</text>
    <text x="187.36" y="57.51" text-anchor="end" dy="0.35em" transform="rotate(-90, 187.36, 57.51)">环境科学</text>
    <text x="191.05" y="57.51" text-anchor="end" dy="0.35em" transform="rotate(-90, 191.05, 57.51)">生物信息技术</text>
    <text x="194.74" y="57.51" text-anchor="end" dy="0.35em" transform="rotate(-90, 194.74, 57.51)">生物工程</text>
    <text x="198.42" y="57.51" text-anchor="end" dy="0.35em" transform="rotate(-90, 198.42, 57.51)">生物技术</text>
    <text x="202.11" y="57.51" text-anchor="end" dy="0.35em" transform="rotate(-90, 202.11, 57.51)">电子信息工程</text>
    <text x="205.8" y="57.51" text-anchor="end" dy="0.35em" transform="rotate(-90, 205.8, 57.51)">电子信息科学与技术</text>
    <text x="209.48" y="57.51" text-anchor="end" dy="0.35em" transform="rotate(-90, 209.48, 57.51)">电子封装技术</text>
    <text x="213.17" y="57.51" text-anchor="end" dy="0.35em" transform="rotate(-90, 213.17, 57.51)">电子科学与技术</text>
    <text x="216.86" y="57.51" text-anchor="end" dy="0.35em" transform="rotate(-90, 216.86, 57.51)">电气工程及其自动化</text>
    <text x="220.54" y="57.51" text-anchor="end" dy="0.35em" transform="rotate(-90, 220.54, 57.51)">电磁场与无线技术</text>
    <text x="224.23" y="57.51" text-anchor="end" dy="0.35em" transform="rotate(-90, 224.23, 57.51)">社会学</text>
    <text x="227.91" y="57.51" text-anchor="end" dy="0.35em" transform="rotate(-90, 227.91, 57.51)">空间科学与技术</text>
    <text x="231.6" y="57.51" text-anchor="end" dy="0.35em" transform="rotate(-90, 231.6, 57.51)">经济学</text>
    <text x="235.29" y="57.51" text-anchor="end" dy="0.35em" transform="rotate(-90, 235.29, 57.51)">给排水科学与工程</text>
    <text x="238.97" y="57.51" text-anchor="end" dy="0.35em" transform="rotate(-90, 238.97, 57.51)">能源化学工程</text>
    <text x="242.66" y="57.51" text-anchor="end" dy="0.35em" transform="rotate(-90, 242.66, 57.51)">自动化</text>
    <text x="246.35" y="57.51" text-anchor="end" dy="0.35em" transform="rotate(-90, 246.35, 57.51)">艺术设计</text>
    <text x="250.03" y="57.51" text-anchor="end" dy="0.35em" transform="rotate(-90, 250.03, 57.51)">英语</text>
    <text x="253.72" y="57.51" text-anchor="end" dy="0.35em" transform="rotate(-90, 253.72, 57.51)">计算机科学与技术</text>
    <text x="257.41" y="57.51" text-anchor="end" dy="0.35em" transform="rotate(-90, 257.41, 57.51)">财务管理</text>
    <text x="261.09" y="57.51" text-anchor="end" dy="0.35em" transform="rotate(-90, 261.09, 57.51)">软件工程</text>
    <text x="264.78" y="57.51" text-anchor="end" dy="0.35em" transform="rotate(-90, 264.78, 57.51)">通信工程</text>
    <text x="268.47" y="57.51" text-anchor="end" dy="0.35em" transform="rotate(-90, 268.47, 57.51)">道路桥梁与渡河工程</text>
    <text x="272.15" y="57.51" text-anchor="end" dy="0.35em" transform="rotate(-90, 272.15, 57.51)">遥感科学与技术</text>
    <text x="275.84" y="57.51" text-anchor="end" dy="0.35em" transform="rotate(-90, 275.84, 57.51)">金融学</text>
    <text x="279.52" y="57.51" text-anchor="end" dy="0.35em" transform="rotate(-90, 279.52, 57.51)">飞行器制造工程</text>
    <text x="283.21" y="57.51" text-anchor="end" dy="0.35em" transform="rotate(-90, 283.21, 57.51)">飞行器动力工程</text>
    <text x="286.9" y="57.51" text-anchor="end" dy="0.35em" transform="rotate(-90, 286.9, 57.51)">飞行器环境与生命保障工程</text>
    <text x="290.58" y="57.51" text-anchor="end" dy="0.35em" transform="rotate(-90, 290.58, 57.51)">飞行器设计与工程</text>
    <text x="294.27" y="57.51" text-anchor="end" dy="0.35em" transform="rotate(-90, 294.27, 57.51)">食品科学与工程</text>
    <text x="297.96" y="57.51" text-anchor="end" dy="0.35em" transform="rotate(-90, 297.96, 57.51)">高分子材料与工程</text>
  </g>
<g clip-path="url(#img-a57696b2-4)">
  <g id="img-a57696b2-5">
    <g pointer-events="visible" opacity="1" fill="#000000" fill-opacity="0.000" stroke="#000000" stroke-opacity="0.000" class="guide background" id="img-a57696b2-6">
      <rect x="19.63" y="12.61" width="280.17" height="43.9"/>
    </g>
    <g class="guide ygridlines xfixed" stroke-dasharray="0.5,0.5" stroke-width="0.2" stroke="#D0D0E0" id="img-a57696b2-7">
      <path fill="none" d="M19.63,54.51 L 299.8 54.51"/>
      <path fill="none" d="M19.63,47.86 L 299.8 47.86"/>
      <path fill="none" d="M19.63,41.21 L 299.8 41.21"/>
      <path fill="none" d="M19.63,34.56 L 299.8 34.56"/>
      <path fill="none" d="M19.63,27.91 L 299.8 27.91"/>
      <path fill="none" d="M19.63,21.26 L 299.8 21.26"/>
      <path fill="none" d="M19.63,14.61 L 299.8 14.61"/>
    </g>
    <g class="guide xgridlines yfixed" stroke-dasharray="0.5,0.5" stroke-width="0.2" stroke="#D0D0E0" id="img-a57696b2-8">
      <path fill="none" d="M23.32,12.61 L 23.32 56.51"/>
      <path fill="none" d="M27,12.61 L 27 56.51"/>
      <path fill="none" d="M30.69,12.61 L 30.69 56.51"/>
      <path fill="none" d="M34.38,12.61 L 34.38 56.51"/>
      <path fill="none" d="M38.06,12.61 L 38.06 56.51"/>
      <path fill="none" d="M41.75,12.61 L 41.75 56.51"/>
      <path fill="none" d="M45.44,12.61 L 45.44 56.51"/>
      <path fill="none" d="M49.12,12.61 L 49.12 56.51"/>
      <path fill="none" d="M52.81,12.61 L 52.81 56.51"/>
      <path fill="none" d="M56.5,12.61 L 56.5 56.51"/>
      <path fill="none" d="M60.18,12.61 L 60.18 56.51"/>
      <path fill="none" d="M63.87,12.61 L 63.87 56.51"/>
      <path fill="none" d="M67.56,12.61 L 67.56 56.51"/>
      <path fill="none" d="M71.24,12.61 L 71.24 56.51"/>
      <path fill="none" d="M74.93,12.61 L 74.93 56.51"/>
      <path fill="none" d="M78.61,12.61 L 78.61 56.51"/>
      <path fill="none" d="M82.3,12.61 L 82.3 56.51"/>
      <path fill="none" d="M85.99,12.61 L 85.99 56.51"/>
      <path fill="none" d="M89.67,12.61 L 89.67 56.51"/>
      <path fill="none" d="M93.36,12.61 L 93.36 56.51"/>
      <path fill="none" d="M97.05,12.61 L 97.05 56.51"/>
      <path fill="none" d="M100.73,12.61 L 100.73 56.51"/>
      <path fill="none" d="M104.42,12.61 L 104.42 56.51"/>
      <path fill="none" d="M108.11,12.61 L 108.11 56.51"/>
      <path fill="none" d="M111.79,12.61 L 111.79 56.51"/>
      <path fill="none" d="M115.48,12.61 L 115.48 56.51"/>
      <path fill="none" d="M119.17,12.61 L 119.17 56.51"/>
      <path fill="none" d="M122.85,12.61 L 122.85 56.51"/>
      <path fill="none" d="M126.54,12.61 L 126.54 56.51"/>
      <path fill="none" d="M130.22,12.61 L 130.22 56.51"/>
      <path fill="none" d="M133.91,12.61 L 133.91 56.51"/>
      <path fill="none" d="M137.6,12.61 L 137.6 56.51"/>
      <path fill="none" d="M141.28,12.61 L 141.28 56.51"/>
      <path fill="none" d="M144.97,12.61 L 144.97 56.51"/>
      <path fill="none" d="M148.66,12.61 L 148.66 56.51"/>
      <path fill="none" d="M152.34,12.61 L 152.34 56.51"/>
      <path fill="none" d="M156.03,12.61 L 156.03 56.51"/>
      <path fill="none" d="M159.72,12.61 L 159.72 56.51"/>
      <path fill="none" d="M163.4,12.61 L 163.4 56.51"/>
      <path fill="none" d="M167.09,12.61 L 167.09 56.51"/>
      <path fill="none" d="M170.78,12.61 L 170.78 56.51"/>
      <path fill="none" d="M174.46,12.61 L 174.46 56.51"/>
      <path fill="none" d="M178.15,12.61 L 178.15 56.51"/>
      <path fill="none" d="M181.83,12.61 L 181.83 56.51"/>
      <path fill="none" d="M185.52,12.61 L 185.52 56.51"/>
      <path fill="none" d="M189.21,12.61 L 189.21 56.51"/>
      <path fill="none" d="M192.89,12.61 L 192.89 56.51"/>
      <path fill="none" d="M196.58,12.61 L 196.58 56.51"/>
      <path fill="none" d="M200.27,12.61 L 200.27 56.51"/>
      <path fill="none" d="M203.95,12.61 L 203.95 56.51"/>
      <path fill="none" d="M207.64,12.61 L 207.64 56.51"/>
      <path fill="none" d="M211.33,12.61 L 211.33 56.51"/>
      <path fill="none" d="M215.01,12.61 L 215.01 56.51"/>
      <path fill="none" d="M218.7,12.61 L 218.7 56.51"/>
      <path fill="none" d="M222.39,12.61 L 222.39 56.51"/>
      <path fill="none" d="M226.07,12.61 L 226.07 56.51"/>
      <path fill="none" d="M229.76,12.61 L 229.76 56.51"/>
      <path fill="none" d="M233.44,12.61 L 233.44 56.51"/>
      <path fill="none" d="M237.13,12.61 L 237.13 56.51"/>
      <path fill="none" d="M240.82,12.61 L 240.82 56.51"/>
      <path fill="none" d="M244.5,12.61 L 244.5 56.51"/>
      <path fill="none" d="M248.19,12.61 L 248.19 56.51"/>
      <path fill="none" d="M251.88,12.61 L 251.88 56.51"/>
      <path fill="none" d="M255.56,12.61 L 255.56 56.51"/>
      <path fill="none" d="M259.25,12.61 L 259.25 56.51"/>
      <path fill="none" d="M262.94,12.61 L 262.94 56.51"/>
      <path fill="none" d="M266.62,12.61 L 266.62 56.51"/>
      <path fill="none" d="M270.31,12.61 L 270.31 56.51"/>
      <path fill="none" d="M274,12.61 L 274 56.51"/>
      <path fill="none" d="M277.68,12.61 L 277.68 56.51"/>
      <path fill="none" d="M281.37,12.61 L 281.37 56.51"/>
      <path fill="none" d="M285.05,12.61 L 285.05 56.51"/>
      <path fill="none" d="M288.74,12.61 L 288.74 56.51"/>
      <path fill="none" d="M292.43,12.61 L 292.43 56.51"/>
      <path fill="none" d="M296.11,12.61 L 296.11 56.51"/>
    </g>
    <g class="plotpanel" id="img-a57696b2-9">
      <g shape-rendering="crispEdges" stroke-width="0.3" id="img-a57696b2-10">
        <g stroke="#000000" stroke-opacity="0.000" fill="#00BFFF" class="geometry" id="img-a57696b2-11">
          <rect x="19.61" y="26.26" width="3.74" height="28.25"/>
          <rect x="23.29" y="22.02" width="3.74" height="32.49"/>
          <rect x="26.98" y="32.26" width="3.74" height="22.25"/>
          <rect x="30.67" y="29.64" width="3.74" height="24.87"/>
          <rect x="34.35" y="19.97" width="3.74" height="34.54"/>
          <rect x="38.04" y="32.87" width="3.74" height="21.64"/>
          <rect x="41.73" y="29.85" width="3.74" height="24.66"/>
          <rect x="45.41" y="34.05" width="3.74" height="20.46"/>
          <rect x="49.1" y="24.74" width="3.74" height="29.77"/>
          <rect x="52.78" y="30.34" width="3.74" height="24.17"/>
          <rect x="56.47" y="26.91" width="3.74" height="27.6"/>
          <rect x="60.16" y="33.94" width="3.74" height="20.57"/>
          <rect x="63.84" y="25.28" width="3.74" height="29.23"/>
          <rect x="67.53" y="37.14" width="3.74" height="17.36"/>
          <rect x="71.22" y="30.39" width="3.74" height="24.12"/>
          <rect x="74.9" y="22.15" width="3.74" height="32.36"/>
          <rect x="78.59" y="30.88" width="3.74" height="23.63"/>
          <rect x="82.28" y="31.89" width="3.74" height="22.62"/>
          <rect x="85.96" y="27.85" width="3.74" height="26.66"/>
          <rect x="89.65" y="34.31" width="3.74" height="20.2"/>
          <rect x="93.34" y="23.44" width="3.74" height="31.07"/>
          <rect x="97.02" y="34.29" width="3.74" height="20.22"/>
          <rect x="100.71" y="33.67" width="3.74" height="20.84"/>
          <rect x="104.39" y="21.59" width="3.74" height="32.92"/>
          <rect x="108.08" y="24.01" width="3.74" height="30.5"/>
          <rect x="111.77" y="34.42" width="3.74" height="20.09"/>
          <rect x="115.45" y="23.87" width="3.74" height="30.64"/>
          <rect x="119.14" y="32.96" width="3.74" height="21.55"/>
          <rect x="122.83" y="26.52" width="3.74" height="27.99"/>
          <rect x="126.51" y="32.66" width="3.74" height="21.85"/>
          <rect x="130.2" y="36.19" width="3.74" height="18.32"/>
          <rect x="133.89" y="27.64" width="3.74" height="26.87"/>
          <rect x="137.57" y="21.36" width="3.74" height="33.15"/>
          <rect x="141.26" y="28.4" width="3.74" height="26.11"/>
          <rect x="144.95" y="24.85" width="3.74" height="29.66"/>
          <rect x="148.63" y="29.21" width="3.74" height="25.3"/>
          <rect x="152.32" y="30.06" width="3.74" height="24.45"/>
          <rect x="156" y="26.33" width="3.74" height="28.18"/>
          <rect x="159.69" y="21.51" width="3.74" height="32.99"/>
          <rect x="163.38" y="34.03" width="3.74" height="20.48"/>
          <rect x="167.06" y="30.48" width="3.74" height="24.03"/>
          <rect x="170.75" y="26.84" width="3.74" height="27.66"/>
          <rect x="174.44" y="25.09" width="3.74" height="29.42"/>
          <rect x="178.12" y="26.4" width="3.74" height="28.11"/>
          <rect x="181.81" y="25.65" width="3.74" height="28.85"/>
          <rect x="185.5" y="25.47" width="3.74" height="29.04"/>
          <rect x="189.18" y="21.93" width="3.74" height="32.58"/>
          <rect x="192.87" y="31.8" width="3.74" height="22.71"/>
          <rect x="196.56" y="27.37" width="3.74" height="27.13"/>
          <rect x="200.24" y="31.59" width="3.74" height="22.92"/>
          <rect x="203.93" y="29.05" width="3.74" height="25.46"/>
          <rect x="207.61" y="24.18" width="3.74" height="30.33"/>
          <rect x="211.3" y="33.46" width="3.74" height="21.05"/>
          <rect x="214.99" y="28.54" width="3.74" height="25.97"/>
          <rect x="218.67" y="31.77" width="3.74" height="22.74"/>
          <rect x="222.36" y="31.33" width="3.74" height="23.18"/>
          <rect x="226.05" y="24.42" width="3.74" height="30.09"/>
          <rect x="229.73" y="29.27" width="3.74" height="25.24"/>
          <rect x="233.42" y="32.44" width="3.74" height="22.07"/>
          <rect x="237.11" y="24.03" width="3.74" height="30.48"/>
          <rect x="240.79" y="27.75" width="3.74" height="26.76"/>
          <rect x="244.48" y="37.41" width="3.74" height="17.1"/>
          <rect x="248.17" y="28.67" width="3.74" height="25.84"/>
          <rect x="251.85" y="27.86" width="3.74" height="26.64"/>
          <rect x="255.54" y="32.71" width="3.74" height="21.79"/>
          <rect x="259.22" y="29.62" width="3.74" height="24.88"/>
          <rect x="262.91" y="31.63" width="3.74" height="22.88"/>
          <rect x="266.6" y="27.94" width="3.74" height="26.57"/>
          <rect x="270.28" y="33.1" width="3.74" height="21.41"/>
          <rect x="273.97" y="33.92" width="3.74" height="20.59"/>
          <rect x="277.66" y="25.85" width="3.74" height="28.66"/>
          <rect x="281.34" y="23.86" width="3.74" height="30.65"/>
          <rect x="285.03" y="28.9" width="3.74" height="25.61"/>
          <rect x="288.72" y="25.26" width="3.74" height="29.24"/>
          <rect x="292.4" y="20.24" width="3.74" height="34.27"/>
          <rect x="296.09" y="29.86" width="3.74" height="24.65"/>
        </g>
      </g>
    </g>
  </g>
</g>
  <g class="guide ylabels" font-size="2.82" font-family="'PT Sans Caption','Helvetica Neue','Helvetica',sans-serif" fill="#6C606B" id="img-a57696b2-12">
    <text x="18.63" y="54.51" text-anchor="end" dy="0.35em">0</text>
    <text x="18.63" y="47.86" text-anchor="end" dy="0.35em">100</text>
    <text x="18.63" y="41.21" text-anchor="end" dy="0.35em">200</text>
    <text x="18.63" y="34.56" text-anchor="end" dy="0.35em">300</text>
    <text x="18.63" y="27.91" text-anchor="end" dy="0.35em">400</text>
    <text x="18.63" y="21.26" text-anchor="end" dy="0.35em">500</text>
    <text x="18.63" y="14.61" text-anchor="end" dy="0.35em">600</text>
  </g>
  <g font-size="3.88" font-family="'PT Sans','Helvetica Neue','Helvetica',sans-serif" fill="#564A55" stroke="#000000" stroke-opacity="0.000" id="img-a57696b2-13">
    <text x="8.81" y="32.56" text-anchor="middle" dy="0.35em" transform="rotate(-90, 8.81, 34.56)">amount_sum_mean</text>
  </g>
  <g font-size="3.88" font-family="'PT Sans','Helvetica Neue','Helvetica',sans-serif" fill="#564A55" stroke="#000000" stroke-opacity="0.000" id="img-a57696b2-14">
    <text x="159.72" y="10.61" text-anchor="middle">各专业人均每月消费额</text>
  </g>
</g>
<defs>
  <clipPath id="img-a57696b2-4">
  <path d="M19.63,12.61 L 299.8 12.61 299.8 56.51 19.63 56.51" />
</clipPath>
</defs>
</svg>
