<?xml version="1.0" encoding="UTF-8"?>
<svg xmlns="http://www.w3.org/2000/svg"
     xmlns:xlink="http://www.w3.org/1999/xlink"
     xmlns:gadfly="http://www.gadflyjl.org/ns"
     version="1.2"
     width="152.4mm" height="101.6mm" viewBox="0 0 152.4 101.6"
     stroke="none"
     fill="#000000"
     stroke-width="0.3"
     font-size="3.88"
>
<g class="plotroot xscalable yscalable" id="img-ba034a00-1">
  <g font-size="3.88" font-family="'PT Sans','Helvetica Neue','Helvetica',sans-serif" fill="#564A55" stroke="#000000" stroke-opacity="0.000" id="img-ba034a00-2">
    <text x="73.44" y="89.99" text-anchor="middle" dy="0.6em">date_meandiff</text>
  </g>
  <g class="guide xlabels" font-size="2.82" font-family="'PT Sans Caption','Helvetica Neue','Helvetica',sans-serif" fill="#6C606B" id="img-ba034a00-3">
    <text x="13.02" y="83.32" text-anchor="middle" dy="0.6em">0</text>
    <text x="43.23" y="83.32" text-anchor="middle" dy="0.6em">5</text>
    <text x="73.44" y="83.32" text-anchor="middle" dy="0.6em">10</text>
    <text x="103.64" y="83.32" text-anchor="middle" dy="0.6em">15</text>
    <text x="133.85" y="83.32" text-anchor="middle" dy="0.6em">20</text>
  </g>
  <g class="guide colorkey" id="img-ba034a00-4">
    <g fill="#4C404B" font-size="2.82" font-family="'PT Sans','Helvetica Neue','Helvetica',sans-serif" id="img-ba034a00-5">
      <text x="139.66" y="47.46" dy="0.35em" id="img-ba034a00-6" class="color_M">M</text>
      <text x="139.66" y="51.09" dy="0.35em" id="img-ba034a00-7" class="color_F">F</text>
    </g>
    <g stroke="#000000" stroke-opacity="0.000" id="img-ba034a00-8">
      <rect x="136.85" y="46.56" width="1.81" height="1.81" id="img-ba034a00-9" class="color_M" fill="#00BFFF"/>
      <rect x="136.85" y="50.18" width="1.81" height="1.81" id="img-ba034a00-10" class="color_F" fill="#D4CA3A"/>
    </g>
    <g fill="#362A35" font-size="3.88" font-family="'PT Sans','Helvetica Neue','Helvetica',sans-serif" stroke="#000000" stroke-opacity="0.000" id="img-ba034a00-11">
      <text x="136.85" y="43.64" id="img-ba034a00-12">gender</text>
    </g>
  </g>
<g clip-path="url(#img-ba034a00-13)">
  <g id="img-ba034a00-14">
    <g pointer-events="visible" opacity="1" fill="#000000" fill-opacity="0.000" stroke="#000000" stroke-opacity="0.000" class="guide background" id="img-ba034a00-15">
      <rect x="11.02" y="12.61" width="124.83" height="69.7" id="img-ba034a00-16"/>
    </g>
    <g class="guide ygridlines xfixed" stroke-dasharray="0.5,0.5" stroke-width="0.2" stroke="#D0D0E0" id="img-ba034a00-17">
      <path fill="none" d="M11.02,80.32 L 135.85 80.32" id="img-ba034a00-18"/>
      <path fill="none" d="M11.02,63.89 L 135.85 63.89" id="img-ba034a00-19"/>
      <path fill="none" d="M11.02,47.46 L 135.85 47.46" id="img-ba034a00-20"/>
      <path fill="none" d="M11.02,31.04 L 135.85 31.04" id="img-ba034a00-21"/>
      <path fill="none" d="M11.02,14.61 L 135.85 14.61" id="img-ba034a00-22"/>
    </g>
    <g class="guide xgridlines yfixed" stroke-dasharray="0.5,0.5" stroke-width="0.2" stroke="#D0D0E0" id="img-ba034a00-23">
      <path fill="none" d="M13.02,12.61 L 13.02 82.32" id="img-ba034a00-24"/>
      <path fill="none" d="M43.23,12.61 L 43.23 82.32" id="img-ba034a00-25"/>
      <path fill="none" d="M73.44,12.61 L 73.44 82.32" id="img-ba034a00-26"/>
      <path fill="none" d="M103.64,12.61 L 103.64 82.32" id="img-ba034a00-27"/>
      <path fill="none" d="M133.85,12.61 L 133.85 82.32" id="img-ba034a00-28"/>
    </g>
    <g class="plotpanel" id="img-ba034a00-29">
      <g shape-rendering="crispEdges" stroke-width="0.3" id="img-ba034a00-30">
        <g stroke="#000000" stroke-opacity="0.000" class="geometry" id="img-ba034a00-31">
          <rect x="17.02" y="77.89" width="2.89" height="2.43" id="img-ba034a00-32" fill="#D4CA3A"/>
          <rect x="19.86" y="78.37" width="2.89" height="1.94" id="img-ba034a00-33" fill="#D4CA3A"/>
          <rect x="22.7" y="74.48" width="2.89" height="5.83" id="img-ba034a00-34" fill="#D4CA3A"/>
          <rect x="25.54" y="64.28" width="2.89" height="16.04" id="img-ba034a00-35" fill="#D4CA3A"/>
          <rect x="28.38" y="58.45" width="2.89" height="21.87" id="img-ba034a00-36" fill="#D4CA3A"/>
          <rect x="31.22" y="58.45" width="2.89" height="21.87" id="img-ba034a00-37" fill="#D4CA3A"/>
          <rect x="34.06" y="55.04" width="2.89" height="25.27" id="img-ba034a00-38" fill="#D4CA3A"/>
          <rect x="36.9" y="47.27" width="2.89" height="33.05" id="img-ba034a00-39" fill="#D4CA3A"/>
          <rect x="39.74" y="51.16" width="2.89" height="29.16" id="img-ba034a00-40" fill="#D4CA3A"/>
          <rect x="42.58" y="51.64" width="2.89" height="28.67" id="img-ba034a00-41" fill="#D4CA3A"/>
          <rect x="45.42" y="55.53" width="2.89" height="24.79" id="img-ba034a00-42" fill="#D4CA3A"/>
          <rect x="48.26" y="54.07" width="2.89" height="26.24" id="img-ba034a00-43" fill="#D4CA3A"/>
          <rect x="51.1" y="57.47" width="2.89" height="22.84" id="img-ba034a00-44" fill="#D4CA3A"/>
          <rect x="53.94" y="63.31" width="2.89" height="17.01" id="img-ba034a00-45" fill="#D4CA3A"/>
          <rect x="56.78" y="70.11" width="2.89" height="10.21" id="img-ba034a00-46" fill="#D4CA3A"/>
          <rect x="59.62" y="71.57" width="2.89" height="8.75" id="img-ba034a00-47" fill="#D4CA3A"/>
          <rect x="62.46" y="74.48" width="2.89" height="5.83" id="img-ba034a00-48" fill="#D4CA3A"/>
          <rect x="65.3" y="71.08" width="2.89" height="9.23" id="img-ba034a00-49" fill="#D4CA3A"/>
          <rect x="68.14" y="72.05" width="2.89" height="8.26" id="img-ba034a00-50" fill="#D4CA3A"/>
          <rect x="70.98" y="74" width="2.89" height="6.32" id="img-ba034a00-51" fill="#D4CA3A"/>
          <rect x="73.82" y="76.43" width="2.89" height="3.89" id="img-ba034a00-52" fill="#D4CA3A"/>
          <rect x="76.66" y="77.4" width="2.89" height="2.92" id="img-ba034a00-53" fill="#D4CA3A"/>
          <rect x="79.5" y="78.37" width="2.89" height="1.94" id="img-ba034a00-54" fill="#D4CA3A"/>
          <rect x="82.34" y="75.46" width="2.89" height="4.86" id="img-ba034a00-55" fill="#D4CA3A"/>
          <rect x="85.18" y="78.86" width="2.89" height="1.46" id="img-ba034a00-56" fill="#D4CA3A"/>
          <rect x="88.02" y="77.4" width="2.89" height="2.92" id="img-ba034a00-57" fill="#D4CA3A"/>
          <rect x="90.86" y="79.34" width="2.89" height="0.97" id="img-ba034a00-58" fill="#D4CA3A"/>
          <rect x="93.7" y="80.32" width="2.89" height="0.01" id="img-ba034a00-59" fill="#D4CA3A"/>
          <rect x="96.54" y="79.34" width="2.89" height="0.97" id="img-ba034a00-60" fill="#D4CA3A"/>
          <rect x="99.38" y="78.86" width="2.89" height="1.46" id="img-ba034a00-61" fill="#D4CA3A"/>
          <rect x="102.22" y="79.34" width="2.89" height="0.97" id="img-ba034a00-62" fill="#D4CA3A"/>
          <rect x="105.06" y="79.83" width="2.89" height="0.49" id="img-ba034a00-63" fill="#D4CA3A"/>
          <rect x="107.9" y="80.32" width="2.89" height="0.01" id="img-ba034a00-64" fill="#D4CA3A"/>
          <rect x="110.74" y="NaN" width="2.89" height="0.01" id="img-ba034a00-65" fill="#D4CA3A"/>
          <rect x="113.58" y="79.83" width="2.89" height="0.49" id="img-ba034a00-66" fill="#D4CA3A"/>
          <rect x="116.42" y="80.32" width="2.89" height="0.01" id="img-ba034a00-67" fill="#D4CA3A"/>
          <rect x="119.26" y="79.83" width="2.89" height="0.49" id="img-ba034a00-68" fill="#D4CA3A"/>
          <rect x="122.1" y="NaN" width="2.89" height="0.01" id="img-ba034a00-69" fill="#D4CA3A"/>
          <rect x="124.94" y="80.32" width="2.89" height="0.01" id="img-ba034a00-70" fill="#D4CA3A"/>
          <rect x="17.02" y="74.89" width="2.89" height="3" id="img-ba034a00-71" fill="#00BFFF"/>
          <rect x="19.86" y="73.01" width="2.89" height="5.36" id="img-ba034a00-72" fill="#00BFFF"/>
          <rect x="22.7" y="66.13" width="2.89" height="8.36" id="img-ba034a00-73" fill="#00BFFF"/>
          <rect x="25.54" y="48.67" width="2.89" height="15.61" id="img-ba034a00-74" fill="#00BFFF"/>
          <rect x="28.38" y="35.42" width="2.89" height="23.02" id="img-ba034a00-75" fill="#00BFFF"/>
          <rect x="31.22" y="34.95" width="2.89" height="23.49" id="img-ba034a00-76" fill="#00BFFF"/>
          <rect x="34.06" y="31.08" width="2.89" height="23.97" id="img-ba034a00-77" fill="#00BFFF"/>
          <rect x="36.9" y="22.2" width="2.89" height="25.07" id="img-ba034a00-78" fill="#00BFFF"/>
          <rect x="39.74" y="22.93" width="2.89" height="28.22" id="img-ba034a00-79" fill="#00BFFF"/>
          <rect x="42.58" y="22.63" width="2.89" height="29.01" id="img-ba034a00-80" fill="#00BFFF"/>
          <rect x="45.42" y="30.62" width="2.89" height="24.91" id="img-ba034a00-81" fill="#00BFFF"/>
          <rect x="48.26" y="34.36" width="2.89" height="19.71" id="img-ba034a00-82" fill="#00BFFF"/>
          <rect x="51.1" y="37.13" width="2.89" height="20.34" id="img-ba034a00-83" fill="#00BFFF"/>
          <rect x="53.94" y="47.7" width="2.89" height="15.61" id="img-ba034a00-84" fill="#00BFFF"/>
          <rect x="56.78" y="52.76" width="2.89" height="17.34" id="img-ba034a00-85" fill="#00BFFF"/>
          <rect x="59.62" y="59.43" width="2.89" height="12.14" id="img-ba034a00-86" fill="#00BFFF"/>
          <rect x="62.46" y="65.18" width="2.89" height="9.3" id="img-ba034a00-87" fill="#00BFFF"/>
          <rect x="65.3" y="61.46" width="2.89" height="9.62" id="img-ba034a00-88" fill="#00BFFF"/>
          <rect x="68.14" y="64.96" width="2.89" height="7.1" id="img-ba034a00-89" fill="#00BFFF"/>
          <rect x="70.98" y="66.11" width="2.89" height="7.88" id="img-ba034a00-90" fill="#00BFFF"/>
          <rect x="73.82" y="73.59" width="2.89" height="2.84" id="img-ba034a00-91" fill="#00BFFF"/>
          <rect x="76.66" y="73.93" width="2.89" height="3.47" id="img-ba034a00-92" fill="#00BFFF"/>
          <rect x="79.5" y="76.48" width="2.89" height="1.89" id="img-ba034a00-93" fill="#00BFFF"/>
          <rect x="82.34" y="73.72" width="2.89" height="1.73" id="img-ba034a00-94" fill="#00BFFF"/>
          <rect x="85.18" y="76.65" width="2.89" height="2.21" id="img-ba034a00-95" fill="#00BFFF"/>
          <rect x="88.02" y="75.19" width="2.89" height="2.21" id="img-ba034a00-96" fill="#00BFFF"/>
          <rect x="90.86" y="77.92" width="2.89" height="1.42" id="img-ba034a00-97" fill="#00BFFF"/>
          <rect x="93.7" y="78.74" width="2.89" height="1.58" id="img-ba034a00-98" fill="#00BFFF"/>
          <rect x="96.54" y="78.55" width="2.89" height="0.79" id="img-ba034a00-99" fill="#00BFFF"/>
          <rect x="99.38" y="78.23" width="2.89" height="0.63" id="img-ba034a00-100" fill="#00BFFF"/>
          <rect x="102.22" y="79.03" width="2.89" height="0.32" id="img-ba034a00-101" fill="#00BFFF"/>
          <rect x="105.06" y="79.83" width="2.89" height="0.01" id="img-ba034a00-102" fill="#00BFFF"/>
          <rect x="107.9" y="80.16" width="2.89" height="0.16" id="img-ba034a00-103" fill="#00BFFF"/>
          <rect x="110.74" y="NaN" width="2.89" height="0.01" id="img-ba034a00-104" fill="#00BFFF"/>
          <rect x="113.58" y="79.67" width="2.89" height="0.16" id="img-ba034a00-105" fill="#00BFFF"/>
          <rect x="116.42" y="79.84" width="2.89" height="0.47" id="img-ba034a00-106" fill="#00BFFF"/>
          <rect x="119.26" y="79.51" width="2.89" height="0.32" id="img-ba034a00-107" fill="#00BFFF"/>
          <rect x="122.1" y="NaN" width="2.89" height="0.01" id="img-ba034a00-108" fill="#00BFFF"/>
          <rect x="124.94" y="80.16" width="2.89" height="0.16" id="img-ba034a00-109" fill="#00BFFF"/>
        </g>
      </g>
    </g>
  </g>
</g>
  <g class="guide ylabels" font-size="2.82" font-family="'PT Sans Caption','Helvetica Neue','Helvetica',sans-serif" fill="#6C606B" id="img-ba034a00-110">
    <text x="10.02" y="80.32" text-anchor="end" dy="0.35em" id="img-ba034a00-111">0.0</text>
    <text x="10.02" y="63.89" text-anchor="end" dy="0.35em" id="img-ba034a00-112">0.1</text>
    <text x="10.02" y="47.46" text-anchor="end" dy="0.35em" id="img-ba034a00-113">0.2</text>
    <text x="10.02" y="31.04" text-anchor="end" dy="0.35em" id="img-ba034a00-114">0.3</text>
    <text x="10.02" y="14.61" text-anchor="end" dy="0.35em" id="img-ba034a00-115">0.4</text>
  </g>
  <g font-size="3.88" font-family="'PT Sans','Helvetica Neue','Helvetica',sans-serif" fill="#564A55" stroke="#000000" stroke-opacity="0.000" id="img-ba034a00-116">
    <text x="73.44" y="10.61" text-anchor="middle" id="img-ba034a00-117">平均两次洗澡间隔天数</text>
  </g>
</g>
<defs>
  <clipPath id="img-ba034a00-13">
  <path d="M11.02,12.61 L 135.85 12.61 135.85 82.32 11.02 82.32" />
</clipPath>
</defs>
</svg>
